<?xml version="1.0" encoding="utf-8"?>
<!-- Generator: Adobe Illustrator 27.0.1, SVG Export Plug-In . SVG Version: 6.00 Build 0)  -->
<svg version="1.1" id="Слой_1" xmlns="http://www.w3.org/2000/svg" xmlns:xlink="http://www.w3.org/1999/xlink" x="0px" y="0px"
	 viewBox="0 0 500 500" enable-background="new 0 0 500 500" xml:space="preserve">
<circle fill="#051F3F" cx="250" cy="250" r="250"/>
<path fill="#002275" d="M250,500c93,0,174-50.8,217.1-126c-52.9,0.4-100,0.7-139.8,0.6c-69.1-0.2-103.6-0.3-121.4-1.6
	c-56.5-4.2-84.1-8.5-142.3-8.3c-12.8,0-24.7,0.4-35.3,0.9C70,445.4,153.6,500,250,500z"/>
<linearGradient id="SVGID_1_" gradientUnits="userSpaceOnUse" x1="250" y1="461.2977" x2="250" y2="404.4536">
	<stop  offset="0" style="stop-color:#003D78"/>
	<stop  offset="0.1849" style="stop-color:#033F79"/>
	<stop  offset="0.3174" style="stop-color:#0C467B"/>
	<stop  offset="0.4335" style="stop-color:#1C527F"/>
	<stop  offset="0.5402" style="stop-color:#326384"/>
	<stop  offset="0.6405" style="stop-color:#4F798B"/>
	<stop  offset="0.736" style="stop-color:#729493"/>
	<stop  offset="0.8278" style="stop-color:#9CB49D"/>
	<stop  offset="0.9143" style="stop-color:#CBD8A9"/>
	<stop  offset="0.9953" style="stop-color:#FFFFB5"/>
</linearGradient>
<ellipse opacity="0.42" fill="url(#SVGID_1_)" cx="250" cy="432.9" rx="131.7" ry="28.4"/>
<g>
	<path fill="#132D50" d="M463,159.3c-14.3,3.5-19.7,22.1-33,28.5c-11.5,5.6-25.4,0.6-38.1,2.6c-16,2.6-28.4,16-44,20.3
		c-15.3,4.2-31.3-0.9-46.8-4c-15.5-3.1-33.6-3.6-45,7.4c-8,7.7-12.1,20.6-22.9,23.7c-12.3,3.5-25.8-8.5-37.5-3.4
		c-10.4,4.5-12.1,19.3-21.6,25.5c-6.4,4.1-14.5,3.3-22.1,3.9c-16.5,1.3-33.2,9.6-42.6,23.3c127.2-34.6,254.4-69.2,381.6-103.9
		c-2.1-7.6-4.5-15-7.3-22.3C476.7,159.9,469.8,157.7,463,159.3z"/>
	<path fill="#132D50" d="M485.1,235c-3,4.6-5.4,9.9-9.9,13c-10,6.9-25.7,0.2-35,8.2c-5,4.4-6.3,11.8-10.6,16.9
		c-4.3,5-11.1,7.1-17.4,9.2c-6.3,2-12.4,4.7-16,10.3c34.5-12.4,69.1-24.9,103.6-37.3c0-1.7,0.1-3.5,0.1-5.2c0-8-0.4-15.9-1.2-23.8
		c-0.2,0-0.5-0.1-0.7-0.1C492.6,225.9,488.1,230.4,485.1,235z"/>
	<path fill="#132D50" d="M319.3,47.4c-4.3,5-11.1,7.1-17.4,9.2c-6.3,2-12.4,4.7-16,10.3C316,56,346.2,45.1,376.3,34.3
		c-5.7-3.3-11.4-6.5-17.4-9.3c-9.6,2.4-21.5-0.9-29.1,5.6C324.9,34.9,323.6,42.4,319.3,47.4z"/>
</g>
<ellipse opacity="0.5" fill="#527098" cx="250" cy="430.5" rx="72.4" ry="13"/>
<g>
	<path fill="none" d="M472.9,361.7c-1.5,2.8-3.8,5.8-7.8,7.5c-0.6,0.2-1.1,0.4-1.7,0.6c1.4,1.5,2.5,3.2,3.1,5.2
		c2.6-4.4,5-9,7.3-13.6C473.5,361.4,473.2,361.6,472.9,361.7C472.9,361.7,472.9,361.7,472.9,361.7z"/>
	<path fill="none" d="M461.6,383.1c0.9-1.5,1.9-2.9,2.8-4.4l-2.8,0V383.1z"/>
	<path fill="none" d="M458.2,378.8l-0.1-0.2l-166.7-0.9c1.2-4.1,4.4-7.5,8.3-9.1c3.9-1.6,8.6-1.3,12.3,0.8
		c-0.1-7.3,5.3-14.9,12.5-16.5c7.2-1.6,15.2,2.3,18.3,8.9c1.3-5.5,6.2-9.4,11.8-10c5.6-0.6,11.5,2.6,14,7.6
		c2.5-3.3,6.7-4.2,10.7-3.1c4,1.1,7.2,4.8,7.6,8.9c3-7,9.7-11,17.3-11.1c7.6-0.1,15,4.6,18.1,11.5c2.5-4.8,7.8-7.3,13.1-6.7
		c5.4,0.6,10.1,4.9,11.4,10.1c0.6-0.6,1.3-1,1.9-1.5c-4.3-2.6-6.5-6.2-7.3-7.8c-1.3-0.5-2.4-1.2-3.5-2c0,0-0.1,0-0.1,0
		c-1.9-0.2-4.8-0.8-7.5-3c-0.5-0.4-5-4.1-5.1-10.2c-0.1-5.6,3.5-10.8,9.1-13.3c-1.4-2-4.3-6.9-4.6-13.6c-0.1-2.7-0.4-10,5-16
		c0.7-0.7,6.7-7.2,16-6.6c6.8,0.4,11.2,4.3,12.8,5.9c6.7,6.7,6.2,15.5,6.1,16.9c0.9-0.3,10-2.7,17.8,3.4c0.5,0.4,1,0.9,1.5,1.3v1.5
		c7.2-23.4,11.1-48.2,11.1-74C500,111.9,388.1,0,250,0S0,111.9,0,250c0,27.7,4.6,54.2,12.9,79.1c0.6-0.8,1.2-1.5,1.9-2.3
		c6.9-7.1,18.3-9.4,27.4-5.5c2.8,1.2,5.2,3,7.4,5.1l5.4-25.1l1.1-5.1c2.7,15.4,5.4,30.9,8.1,46.3c2.9-0.2,5.9,0.4,8.5,2
		c1.7,1,2.9,2.3,3.8,3.7l5.7-26.6c1.6,9.3,3.2,18.6,4.8,27.9c3.7-2.2,7.9-3.6,12.4-4c5.2-0.5,10.4,0.6,15,2.9l6.4-29.7l1.1-5.1
		c2.1,12.2,4.2,24.3,6.3,36.5c2.7-0.5,5.5-0.4,8,0.6c4.9,1.8,8.5,6.6,8.9,11.8c0.7-0.9,1.5-1.6,2.3-2.3l5.5-25.6
		c1.3,7.3,2.5,14.6,3.8,21.9c0.6-0.1,1.2-0.2,1.7-0.2c5-0.5,10.2,1.2,14,4.6c1.6-11.7,11.4-21.1,23-23.2
		c11.6-2.1,24.2,3.8,29.9,14.2c7.8-3.9,17-3.1,24.2,1.7c7.2,4.8,11.6,13.6,11.1,22.3l-101.4-3.1c-1.7,0.4-3.8,0.7-6.3,0.8v4.4h-1.7
		v-4.4c-2.6-0.1-4.8-0.4-6.6-0.8l0.1-0.4l-12.9-0.4c1,5.5,1.9,11,2.9,16.6c-1,0.2-2.1,0.5-3.3,0.7c-2.8,0.5-6,0.9-9.5,0.9v8.6h-3.3
		v-8.6c-5.1-0.1-9.5-0.8-12.9-1.6l3.7-17.3l-18.9-0.6c0,0.2,0.1,0.4,0.1,0.5c-2.2,0.5-5.1,1-8.5,1.1v5.7H80V372
		c-3.3-0.1-6.2-0.5-8.5-1.1l0.2-1.1l-2.9-0.1c0.1,0.4,0.1,0.8,0.2,1.2c-1.1,0.3-2.2,0.5-3.5,0.7c-2.7,0.5-5.9,0.8-9.4,0.9v8.6h-3.3
		v-8.6c-5.1-0.1-9.5-0.8-12.9-1.6l0.4-2.1l-10.7-0.3C72.1,446.8,154.8,500,250,500c86.9,0,163.4-44.4,208.2-111.7V378.8z
		 M452.7,156.3c0,1.7,0.6,2.4,2.4,2.4c-1.7,0-2.4,0.6-2.4,2.4c0-1.7-0.6-2.4-2.4-2.4C452,158.7,452.7,158,452.7,156.3z M436.9,236.4
		c0,4.1,1.5,5.6,5.6,5.6c-4.1,0-5.6,1.5-5.6,5.6c0-4.1-1.5-5.6-5.6-5.6C435.4,241.9,436.9,240.5,436.9,236.4z M418.8,113.6
		c0,3,1.1,4,4,4c-3,0-4,1.1-4,4c0-3-1.1-4-4-4C417.8,117.6,418.8,116.5,418.8,113.6z M389.2,271.5c0,1.7,0.6,2.4,2.4,2.4
		c-1.7,0-2.4,0.6-2.4,2.4c0-1.7-0.6-2.4-2.4-2.4C388.6,273.9,389.2,273.3,389.2,271.5z M383.6,72.2c-0.2,1.7,0.4,2.4,2.2,2.6
		c-1.7-0.2-2.4,0.4-2.6,2.2c0.2-1.7-0.4-2.4-2.2-2.6C382.8,74.5,383.5,73.9,383.6,72.2z M304.2,25c-0.3,2.9,0.7,4.1,3.7,4.4
		c-2.9-0.3-4.1,0.7-4.4,3.7c0.3-2.9-0.7-4.1-3.7-4.4C302.8,28.9,303.9,28,304.2,25z M28.9,211.4c0-4.1-1.5-5.6-5.6-5.6
		c4.1,0,5.6-1.5,5.6-5.6c0,4.1,1.5,5.6,5.6,5.6C30.4,205.9,28.9,207.3,28.9,211.4z M85.8,303.7c0-1.7-0.6-2.4-2.4-2.4
		c1.7,0,2.4-0.6,2.4-2.4c0,1.7,0.6,2.4,2.4,2.4C86.4,301.3,85.8,302,85.8,303.7z M89.9,160.9c0-3-1.1-4.1-4.1-4.1
		c3,0,4.1-1.1,4.1-4.1c0,3,1.1,4.1,4.1,4.1C91,156.8,89.9,157.9,89.9,160.9z M100.2,98.1c1.7,0,2.4-0.6,2.4-2.4
		c0,1.7,0.6,2.4,2.4,2.4c-1.7,0-2.4,0.6-2.4,2.4C102.6,98.7,102,98.1,100.2,98.1z M105,227.7c0-1.7-0.6-2.4-2.4-2.4
		c1.7,0,2.4-0.6,2.4-2.4c0,1.7,0.6,2.4,2.4,2.4C105.6,225.3,105,225.9,105,227.7z M138.1,39.6c0-1.7-0.6-2.4-2.4-2.4
		c1.7,0,2.4-0.6,2.4-2.4c0,1.7,0.6,2.4,2.4,2.4C138.7,37.3,138.1,37.9,138.1,39.6z M159.4,302.5c0-3-1.1-4.1-4.1-4.1
		c3,0,4.1-1.1,4.1-4.1c0,3,1.1,4.1,4.1,4.1C160.5,298.4,159.4,299.5,159.4,302.5z M177.9,41.7c0.4-4.1-1-5.7-5.1-6
		c4.1,0.4,5.7-1,6-5.1c-0.4,4.1,1,5.7,5.1,6C179.9,36.3,178.3,37.7,177.9,41.7z M259.8,61.5c0.2-1.7-0.4-2.4-2.2-2.6
		c1.7,0.2,2.4-0.4,2.6-2.2c-0.2,1.7,0.4,2.4,2.2,2.6C260.6,59.2,259.9,59.8,259.8,61.5z"/>
	
		<linearGradient id="SVGID_00000059303857008168816720000007984326434518426263_" gradientUnits="userSpaceOnUse" x1="455.7598" y1="358.2241" x2="455.7598" y2="389.2192">
		<stop  offset="2.872297e-03" style="stop-color:#02224F"/>
		<stop  offset="0.3963" style="stop-color:#1F4779"/>
		<stop  offset="0.7897" style="stop-color:#38679C"/>
		<stop  offset="1" style="stop-color:#4273AA"/>
	</linearGradient>
	<path fill="url(#SVGID_00000059303857008168816720000007984326434518426263_)" d="M458.2,370.4c-1.9-0.1-3.6-0.4-5-0.8l5,6.5V370.4
		z"/>
	
		<linearGradient id="SVGID_00000036211884833009861430000015443781956355240616_" gradientUnits="userSpaceOnUse" x1="374.7565" y1="358.2241" x2="374.7565" y2="389.2192">
		<stop  offset="2.872297e-03" style="stop-color:#02224F"/>
		<stop  offset="0.3963" style="stop-color:#1F4779"/>
		<stop  offset="0.7897" style="stop-color:#38679C"/>
		<stop  offset="1" style="stop-color:#4273AA"/>
	</linearGradient>
	<path fill="url(#SVGID_00000036211884833009861430000015443781956355240616_)" d="M449.8,368.2c-0.4-0.2-0.7-0.4-1-0.6
		c-0.7,0.4-1.3,0.9-1.9,1.5c-1.3-5.2-6-9.5-11.4-10.1c-5.4-0.6-10.7,1.9-13.1,6.7c-3.1-6.9-10.5-11.6-18.1-11.5
		c-7.6,0.1-14.4,4.2-17.3,11.1c-0.5-4.1-3.6-7.8-7.6-8.9c-4-1.1-8.2-0.2-10.7,3.1c-2.5-5.1-8.4-8.3-14-7.6
		c-5.6,0.6-10.5,4.5-11.8,10c-3.1-6.6-11.2-10.6-18.3-8.9c-7.2,1.6-12.6,9.2-12.5,16.5c-3.7-2.1-8.4-2.4-12.3-0.8
		c-3.9,1.6-7.1,5-8.3,9.1l166.7,0.9l-7.5-10.1C450.3,368.4,450,368.3,449.8,368.2z"/>
	
		<linearGradient id="SVGID_00000149376724607918210060000008307424510502556849_" gradientUnits="userSpaceOnUse" x1="464.0378" y1="358.2241" x2="464.0378" y2="389.2192">
		<stop  offset="2.872297e-03" style="stop-color:#02224F"/>
		<stop  offset="0.3963" style="stop-color:#1F4779"/>
		<stop  offset="0.7897" style="stop-color:#38679C"/>
		<stop  offset="1" style="stop-color:#4273AA"/>
	</linearGradient>
	<path fill="url(#SVGID_00000149376724607918210060000008307424510502556849_)" d="M461.6,370.2v8.5l2.8,0c0.7-1.2,1.4-2.5,2.2-3.8
		c-0.6-1.9-1.7-3.7-3.1-5.2C462.8,369.9,462.2,370.1,461.6,370.2z"/>
	
		<linearGradient id="SVGID_00000013905220432604541460000008108133025008653447_" gradientUnits="userSpaceOnUse" x1="208.6957" y1="339.1188" x2="208.6957" y2="391.9263">
		<stop  offset="2.872297e-03" style="stop-color:#02224F"/>
		<stop  offset="0.3963" style="stop-color:#1F4779"/>
		<stop  offset="0.7897" style="stop-color:#38679C"/>
		<stop  offset="1" style="stop-color:#4273AA"/>
	</linearGradient>
	<path fill="url(#SVGID_00000013905220432604541460000008108133025008653447_)" d="M159.3,372.6l101.4,3.1
		c0.5-8.7-3.9-17.5-11.1-22.3c-7.2-4.8-16.5-5.6-24.2-1.7c-5.7-10.3-18.3-16.3-29.9-14.2c-11.6,2.2-21.4,11.6-23,23.2
		c-3.8-3.4-9-5.1-14-4.6c-0.6,0.1-1.2,0.1-1.7,0.2c0.9,5.4,1.9,10.8,2.8,16.2C159.4,372.5,159.3,372.6,159.3,372.6z M166.3,357.2
		c0.7,3.7,1.3,7.5,2,11.2c-0.6,0.1-1.3,0.2-2.2,0.3c-0.9,0-1.6-0.1-2.2-0.3L166.3,357.2z"/>
	
		<linearGradient id="SVGID_00000098213785731853549110000008972316513007033525_" gradientUnits="userSpaceOnUse" x1="100.6582" y1="339.1188" x2="100.6582" y2="391.9263">
		<stop  offset="2.872297e-03" style="stop-color:#02224F"/>
		<stop  offset="0.3963" style="stop-color:#1F4779"/>
		<stop  offset="0.7897" style="stop-color:#38679C"/>
		<stop  offset="1" style="stop-color:#4273AA"/>
	</linearGradient>
	<path fill="url(#SVGID_00000098213785731853549110000008972316513007033525_)" d="M109.5,371l4.9-22.7c-4.6-2.3-9.9-3.4-15-2.9
		c-4.4,0.4-8.7,1.8-12.4,4c1.2,7,2.4,14,3.6,21L109.5,371z M100.8,357.2c0.7,3.7,1.3,7.5,2,11.2c-0.6,0.1-1.3,0.2-2.2,0.3
		c-0.9,0-1.6-0.1-2.2-0.3L100.8,357.2z"/>
	
		<linearGradient id="SVGID_00000121968904921177850350000011137861038160239757_" gradientUnits="userSpaceOnUse" x1="70.2712" y1="339.1188" x2="70.2712" y2="391.9263">
		<stop  offset="2.872297e-03" style="stop-color:#02224F"/>
		<stop  offset="0.3963" style="stop-color:#1F4779"/>
		<stop  offset="0.7897" style="stop-color:#38679C"/>
		<stop  offset="1" style="stop-color:#4273AA"/>
	</linearGradient>
	<path fill="url(#SVGID_00000121968904921177850350000011137861038160239757_)" d="M71.8,369.9l4.6-21.6c-0.9-1.3-2.1-2.6-3.8-3.7
		c-2.5-1.6-5.5-2.2-8.5-2c1.6,9.1,3.2,18.1,4.7,27.2L71.8,369.9z"/>
	
		<linearGradient id="SVGID_00000094583475267647610770000014765902758283148675_" gradientUnits="userSpaceOnUse" x1="137.7836" y1="339.1188" x2="137.7836" y2="391.9263">
		<stop  offset="2.872297e-03" style="stop-color:#02224F"/>
		<stop  offset="0.3963" style="stop-color:#1F4779"/>
		<stop  offset="0.7897" style="stop-color:#38679C"/>
		<stop  offset="1" style="stop-color:#4273AA"/>
	</linearGradient>
	<path fill="url(#SVGID_00000094583475267647610770000014765902758283148675_)" d="M144.8,372.1l2.6-12c-0.9,0.7-1.7,1.4-2.3,2.3
		c-0.4-5.2-4-10-8.9-11.8c-2.5-0.9-5.4-1.1-8-0.6c1.3,7.2,2.5,14.4,3.8,21.7L144.8,372.1z"/>
	
		<linearGradient id="SVGID_00000183941432246087777260000006136209166597663916_" gradientUnits="userSpaceOnUse" x1="31.2382" y1="339.1188" x2="31.2382" y2="391.9263">
		<stop  offset="2.872297e-03" style="stop-color:#02224F"/>
		<stop  offset="0.3963" style="stop-color:#1F4779"/>
		<stop  offset="0.7897" style="stop-color:#38679C"/>
		<stop  offset="1" style="stop-color:#4273AA"/>
	</linearGradient>
	<path fill="url(#SVGID_00000183941432246087777260000006136209166597663916_)" d="M49.6,326.4c-2.1-2.1-4.6-3.9-7.4-5.1
		c-9.1-3.9-20.5-1.6-27.4,5.5c-0.7,0.7-1.4,1.5-1.9,2.3c3.1,9.2,6.6,18.2,10.7,26.9l1.3-5.9c0.8,4.4,1.5,8.8,2.3,13.2
		c0.9,1.8,1.8,3.6,2.7,5.4l10.7,0.3L49.6,326.4z"/>
	<path fill="#223950" d="M475,355.1c0,0.3-0.4,3.2-2.1,6.5c0,0,0,0,0,0c0.3-0.1,0.6-0.2,0.9-0.3c1.7-3.4,3.3-6.8,4.8-10.3
		C477.7,352.6,476.5,354,475,355.1z"/>
	<path fill="#003F75" d="M487.4,321.2c-7.8-6.1-16.8-3.6-17.8-3.4c0.1-1.4,0.6-10.2-6.1-16.9c-1.6-1.6-6-5.4-12.8-5.9
		c-9.3-0.6-15.3,5.9-16,6.6c-5.4,6-5.1,13.3-5,16c0.3,6.7,3.2,11.6,4.6,13.6c-5.6,2.4-9.2,7.7-9.1,13.3c0.1,6.1,4.6,9.8,5.1,10.2
		c2.7,2.2,5.6,2.8,7.5,3c0,0,0.1,0,0.1,0c-1.7-1.3-3.2-2.9-4.1-4.9c-1.5-3.2-2-7.2-0.6-10.4c1.4-3.2,4.7-5.4,8.1-5.6
		c3.4-0.2,6.9,1.8,8.6,4.8c0.4-6.8,6.4-12.8,13.1-14c6.7-1.2,14,2.7,16.8,8.9c1.5,3.4,1.5,7.4,0.3,11c3.3-7.7,6.2-15.6,8.7-23.7
		v-1.5C488.4,322,487.9,321.6,487.4,321.2z"/>
	<path fill="#17202D" d="M461.6,370.2c-1.2,0.2-2.3,0.3-3.3,0.2v5.6v2.7v9.5c1.1-1.7,2.2-3.4,3.3-5.2v-4.5V370.2z"/>
	<path fill="#17202D" d="M458.2,376.1l-5-6.5c-1.1-0.3-2-0.7-2.6-1l7.5,10.1l0.1,0.2V376.1z"/>
	<path fill="#004F91" d="M479.8,336.7c-2.7-6.3-10-10.1-16.8-8.9c-6.7,1.2-12.7,7.2-13.1,14c-1.7-3-5.1-5-8.6-4.8
		c-3.4,0.2-6.7,2.4-8.1,5.6c-1.4,3.2-1,7.2,0.6,10.4c0.9,1.9,2.4,3.6,4.1,4.9c1.1,0.8,2.2,1.5,3.5,2c0.8,1.6,3,5.2,7.3,7.8
		c0.3,0.2,0.7,0.4,1,0.6c0.2,0.1,0.5,0.2,0.8,0.4c0.6,0.3,1.5,0.7,2.6,1c1.4,0.4,3.1,0.8,5,0.8c1.1,0,2.2,0,3.3-0.2
		c0.6-0.1,1.3-0.3,1.9-0.5c0.6-0.2,1.1-0.3,1.7-0.6c3.9-1.7,6.3-4.7,7.8-7.5c1.7-3.3,2.1-6.3,2.1-6.5c1.5-1.1,2.7-2.5,3.6-4.1
		c0.5-1.1,1-2.2,1.5-3.3C481.3,344.1,481.3,340.2,479.8,336.7z"/>
	<path fill="#FADD8E" d="M383.2,76.9c0.2-1.7,0.8-2.3,2.6-2.2c-1.7-0.2-2.3-0.8-2.2-2.6c-0.2,1.7-0.8,2.3-2.6,2.2
		C382.8,74.5,383.4,75.2,383.2,76.9z"/>
	<path fill="#FADD8E" d="M260.2,56.8c-0.2,1.7-0.8,2.3-2.6,2.2c1.7,0.2,2.3,0.8,2.2,2.6c0.2-1.7,0.8-2.3,2.6-2.2
		C260.6,59.2,260.1,58.5,260.2,56.8z"/>
	<path fill="#FADD8E" d="M303.5,33c0.3-2.9,1.4-3.9,4.4-3.7c-2.9-0.3-3.9-1.4-3.7-4.4c-0.3,2.9-1.4,3.9-4.4,3.7
		C302.8,28.9,303.8,30.1,303.5,33z"/>
	<path fill="#FADD8E" d="M178.9,30.7c-0.4,4.1-2,5.4-6,5.1c4.1,0.4,5.4,2,5.1,6c0.4-4.1,2-5.4,6-5.1
		C179.9,36.3,178.5,34.7,178.9,30.7z"/>
	<path fill="#FADD8E" d="M28.9,200.3c0,4.1-1.5,5.6-5.6,5.6c4.1,0,5.6,1.5,5.6,5.6c0-4.1,1.5-5.6,5.6-5.6
		C30.4,205.9,28.9,204.4,28.9,200.3z"/>
	<path fill="#FADD8E" d="M85.8,299c0,1.7-0.6,2.4-2.4,2.4c1.7,0,2.4,0.6,2.4,2.4c0-1.7,0.6-2.4,2.4-2.4
		C86.4,301.3,85.8,300.7,85.8,299z"/>
	<path fill="#FADD8E" d="M105,98.1c-1.7,0-2.4-0.6-2.4-2.4c0,1.7-0.6,2.4-2.4,2.4c1.7,0,2.4,0.6,2.4,2.4
		C102.6,98.7,103.2,98.1,105,98.1z"/>
	<path fill="#FADD8E" d="M138.1,34.9c0,1.7-0.6,2.4-2.4,2.4c1.7,0,2.4,0.6,2.4,2.4c0-1.7,0.6-2.4,2.4-2.4
		C138.7,37.3,138.1,36.6,138.1,34.9z"/>
	<path fill="#FADD8E" d="M389.2,276.3c0-1.7,0.6-2.4,2.4-2.4c-1.7,0-2.4-0.6-2.4-2.4c0,1.7-0.6,2.4-2.4,2.4
		C388.6,273.9,389.2,274.5,389.2,276.3z"/>
	<path fill="#FADD8E" d="M452.7,161c0-1.7,0.6-2.4,2.4-2.4c-1.7,0-2.4-0.6-2.4-2.4c0,1.7-0.6,2.4-2.4,2.4
		C452,158.7,452.7,159.3,452.7,161z"/>
	<path fill="#FADD8E" d="M105,223c0,1.7-0.6,2.4-2.4,2.4c1.7,0,2.4,0.6,2.4,2.4c0-1.7,0.6-2.4,2.4-2.4
		C105.6,225.3,105,224.7,105,223z"/>
	<path fill="#FADD8E" d="M418.8,121.6c0-3,1.1-4,4-4c-3,0-4-1.1-4-4c0,3-1.1,4-4,4C417.8,117.6,418.8,118.7,418.8,121.6z"/>
	<path fill="#FADD8E" d="M436.9,247.5c0-4.1,1.5-5.6,5.6-5.6c-4.1,0-5.6-1.5-5.6-5.6c0,4.1-1.5,5.6-5.6,5.6
		C435.4,241.9,436.9,243.4,436.9,247.5z"/>
	<path fill="#FADD8E" d="M89.9,152.8c0,3-1.1,4.1-4.1,4.1c3,0,4.1,1.1,4.1,4.1c0-3,1.1-4.1,4.1-4.1C91,156.8,89.9,155.7,89.9,152.8z
		"/>
	<path fill="#FADD8E" d="M159.4,294.3c0,3-1.1,4.1-4.1,4.1c3,0,4.1,1.1,4.1,4.1c0-3,1.1-4.1,4.1-4.1
		C160.5,298.4,159.4,297.3,159.4,294.3z"/>
	<path fill="#17202D" d="M80,372v5.7h2.2V372c-0.3,0-0.7,0-1,0C80.8,372.1,80.4,372.1,80,372z"/>
	
		<linearGradient id="SVGID_00000041974068475475831090000010370326932814767497_" gradientUnits="userSpaceOnUse" x1="81.6726" y1="360.7217" x2="81.6726" y2="315.2867">
		<stop  offset="0" style="stop-color:#17202D"/>
		<stop  offset="1" style="stop-color:#4273AA"/>
	</linearGradient>
	<path fill="url(#SVGID_00000041974068475475831090000010370326932814767497_)" d="M86.9,349.5c-1.6-9.3-3.2-18.6-4.8-27.9
		l-5.7,26.6c2.7,3.8,2.7,8.1,2.7,8.5C81.2,353.7,83.9,351.3,86.9,349.5z"/>
	
		<linearGradient id="SVGID_00000030448270589496496910000012665060797015051450_" gradientUnits="userSpaceOnUse" x1="86.441" y1="360.7217" x2="86.441" y2="315.2867">
		<stop  offset="0" style="stop-color:#17202D"/>
		<stop  offset="1" style="stop-color:#4273AA"/>
	</linearGradient>
	<path fill="url(#SVGID_00000030448270589496496910000012665060797015051450_)" d="M82.2,372c3.3-0.1,6.2-0.5,8.5-1.1
		c0-0.2-0.1-0.4-0.1-0.5l-8.4-0.3V372z"/>
	
		<linearGradient id="SVGID_00000057108231016397497210000010328926300741137598_" gradientUnits="userSpaceOnUse" x1="75.7774" y1="360.7217" x2="75.7774" y2="315.2867">
		<stop  offset="0" style="stop-color:#17202D"/>
		<stop  offset="1" style="stop-color:#4273AA"/>
	</linearGradient>
	<path fill="url(#SVGID_00000057108231016397497210000010328926300741137598_)" d="M71.8,369.9l-0.2,1.1c2.2,0.5,5.1,1,8.5,1.1v-1.9
		L71.8,369.9z"/>
	
		<linearGradient id="SVGID_00000170271098506320168870000013636168711328696978_" gradientUnits="userSpaceOnUse" x1="81.1824" y1="339.1188" x2="81.1824" y2="391.9263">
		<stop  offset="2.872297e-03" style="stop-color:#02224F"/>
		<stop  offset="0.3963" style="stop-color:#1F4779"/>
		<stop  offset="0.7897" style="stop-color:#38679C"/>
		<stop  offset="1" style="stop-color:#4273AA"/>
	</linearGradient>
	<path fill="url(#SVGID_00000170271098506320168870000013636168711328696978_)" d="M80,370.1v-3h2.2v3.1l8.4,0.3
		c-1.2-7-2.4-14-3.6-21c-3,1.8-5.7,4.2-7.9,7.2c0-0.3,0-4.6-2.7-8.5l-4.6,21.6L80,370.1z"/>
	
		<linearGradient id="SVGID_00000093178991019426843720000003681248797993349802_" gradientUnits="userSpaceOnUse" x1="81.1824" y1="360.7217" x2="81.1824" y2="315.2867">
		<stop  offset="0" style="stop-color:#17202D"/>
		<stop  offset="1" style="stop-color:#4273AA"/>
	</linearGradient>
	<path fill="url(#SVGID_00000093178991019426843720000003681248797993349802_)" d="M80,370.1v-3h2.2v3.1l8.4,0.3
		c-1.2-7-2.4-14-3.6-21c-3,1.8-5.7,4.2-7.9,7.2c0-0.3,0-4.6-2.7-8.5l-4.6,21.6L80,370.1z"/>
	<path fill="#17202D" d="M82.2,367.1H80v3v1.9c0.4,0,0.7,0,1.1,0c0.4,0,0.7,0,1,0v-1.9V367.1z"/>
	
		<linearGradient id="SVGID_00000128474521455323043270000010863016854841009592_" gradientUnits="userSpaceOnUse" x1="81.1092" y1="360.7217" x2="81.1092" y2="315.2867">
		<stop  offset="0" style="stop-color:#17202D"/>
		<stop  offset="1" style="stop-color:#4273AA"/>
	</linearGradient>
	<path fill="url(#SVGID_00000128474521455323043270000010863016854841009592_)" d="M82.2,367.1H80v3v1.9c0.4,0,0.7,0,1.1,0
		c0.4,0,0.7,0,1,0v-1.9V367.1z"/>
	<path fill="#17202D" d="M151.3,373.3v4.4h1.7v-4.4c-0.3,0-0.5,0-0.8,0C151.9,373.4,151.6,373.4,151.3,373.3z"/>
	
		<linearGradient id="SVGID_00000078046676477952007960000017800296847612576154_" gradientUnits="userSpaceOnUse" x1="148.0078" y1="365.7207" x2="148.0078" y2="325.8464">
		<stop  offset="0" style="stop-color:#17202D"/>
		<stop  offset="1" style="stop-color:#4273AA"/>
	</linearGradient>
	<path fill="url(#SVGID_00000078046676477952007960000017800296847612576154_)" d="M144.8,372.1l-0.1,0.4c1.7,0.4,4,0.8,6.6,0.8v-1
		L144.8,372.1z"/>
	
		<linearGradient id="SVGID_00000155105912369784590760000005415449079399468970_" gradientUnits="userSpaceOnUse" x1="156.1168" y1="365.7207" x2="156.1168" y2="325.8464">
		<stop  offset="0" style="stop-color:#17202D"/>
		<stop  offset="1" style="stop-color:#4273AA"/>
	</linearGradient>
	<path fill="url(#SVGID_00000155105912369784590760000005415449079399468970_)" d="M153,373.3c2.5-0.1,4.6-0.4,6.3-0.8l-6.3-0.2
		V373.3z"/>
	
		<linearGradient id="SVGID_00000049923352734145285380000014715900697512953753_" gradientUnits="userSpaceOnUse" x1="152.049" y1="365.7207" x2="152.049" y2="325.8464">
		<stop  offset="0" style="stop-color:#17202D"/>
		<stop  offset="1" style="stop-color:#4273AA"/>
	</linearGradient>
	<path fill="url(#SVGID_00000049923352734145285380000014715900697512953753_)" d="M152.9,334.4l-5.5,25.6c2.6-2,5.9-3.2,9.3-3.7
		C155.4,349.1,154.2,341.7,152.9,334.4z"/>
	
		<linearGradient id="SVGID_00000006700217328719836910000004434692325037779351_" gradientUnits="userSpaceOnUse" x1="152.1644" y1="339.1188" x2="152.1644" y2="391.9263">
		<stop  offset="2.872297e-03" style="stop-color:#02224F"/>
		<stop  offset="0.3963" style="stop-color:#1F4779"/>
		<stop  offset="0.7897" style="stop-color:#38679C"/>
		<stop  offset="1" style="stop-color:#4273AA"/>
	</linearGradient>
	<path fill="url(#SVGID_00000006700217328719836910000004434692325037779351_)" d="M151.3,372.3v-2.8h1.7v2.9l6.3,0.2
		c0.1,0,0.2,0,0.2,0c-0.9-5.4-1.9-10.8-2.8-16.2c-3.4,0.5-6.7,1.7-9.3,3.7l-2.6,12L151.3,372.3z"/>
	
		<linearGradient id="SVGID_00000128487496970740042230000003977696085458896314_" gradientUnits="userSpaceOnUse" x1="152.1644" y1="365.7207" x2="152.1644" y2="325.8464">
		<stop  offset="0" style="stop-color:#17202D"/>
		<stop  offset="1" style="stop-color:#4273AA"/>
	</linearGradient>
	<path fill="url(#SVGID_00000128487496970740042230000003977696085458896314_)" d="M151.3,372.3v-2.8h1.7v2.9l6.3,0.2
		c0.1,0,0.2,0,0.2,0c-0.9-5.4-1.9-10.8-2.8-16.2c-3.4,0.5-6.7,1.7-9.3,3.7l-2.6,12L151.3,372.3z"/>
	<path fill="#17202D" d="M153,369.5h-1.7v2.8v1c0.3,0,0.6,0,0.9,0c0.3,0,0.5,0,0.8,0v-1V369.5z"/>
	
		<linearGradient id="SVGID_00000137098442804860224560000000693828247132205239_" gradientUnits="userSpaceOnUse" x1="152.1217" y1="365.7207" x2="152.1217" y2="325.8464">
		<stop  offset="0" style="stop-color:#17202D"/>
		<stop  offset="1" style="stop-color:#4273AA"/>
	</linearGradient>
	<path fill="url(#SVGID_00000137098442804860224560000000693828247132205239_)" d="M153,369.5h-1.7v2.8v1c0.3,0,0.6,0,0.9,0
		c0.3,0,0.5,0,0.8,0v-1V369.5z"/>
	
		<linearGradient id="SVGID_00000157270648120061219650000002154838818919852699_" gradientUnits="userSpaceOnUse" x1="25.3432" y1="339.1188" x2="25.3432" y2="391.9263">
		<stop  offset="2.872297e-03" style="stop-color:#02224F"/>
		<stop  offset="0.3963" style="stop-color:#1F4779"/>
		<stop  offset="0.7897" style="stop-color:#38679C"/>
		<stop  offset="1" style="stop-color:#4273AA"/>
	</linearGradient>
	<path fill="url(#SVGID_00000157270648120061219650000002154838818919852699_)" d="M23.6,356c1.1,2.4,2.3,4.8,3.6,7.2
		c-0.8-4.4-1.5-8.8-2.3-13.2L23.6,356z"/>
	
		<linearGradient id="SVGID_00000000212469549861717970000015940800869088680113_" gradientUnits="userSpaceOnUse" x1="25.3432" y1="365.6838" x2="25.3432" y2="345.7467">
		<stop  offset="0" style="stop-color:#17202D"/>
		<stop  offset="1" style="stop-color:#4273AA"/>
	</linearGradient>
	<path fill="url(#SVGID_00000000212469549861717970000015940800869088680113_)" d="M23.6,356c1.1,2.4,2.3,4.8,3.6,7.2
		c-0.8-4.4-1.5-8.8-2.3-13.2L23.6,356z"/>
	
		<linearGradient id="SVGID_00000091710858077198173590000009896889206103643319_" gradientUnits="userSpaceOnUse" x1="166.0643" y1="339.1188" x2="166.0643" y2="391.9263">
		<stop  offset="2.872297e-03" style="stop-color:#02224F"/>
		<stop  offset="0.3963" style="stop-color:#1F4779"/>
		<stop  offset="0.7897" style="stop-color:#38679C"/>
		<stop  offset="1" style="stop-color:#4273AA"/>
	</linearGradient>
	<path fill="url(#SVGID_00000091710858077198173590000009896889206103643319_)" d="M168.2,368.5c-0.7-3.7-1.3-7.5-2-11.2l-2.4,11.2
		c0.6,0.1,1.3,0.3,2.2,0.3C166.9,368.7,167.7,368.6,168.2,368.5z"/>
	
		<linearGradient id="SVGID_00000005966314029158330790000001844540597505250195_" gradientUnits="userSpaceOnUse" x1="166.0643" y1="366.4565" x2="166.0643" y2="354.6873">
		<stop  offset="0" style="stop-color:#17202D"/>
		<stop  offset="1" style="stop-color:#4273AA"/>
	</linearGradient>
	<path fill="url(#SVGID_00000005966314029158330790000001844540597505250195_)" d="M168.2,368.5c-0.7-3.7-1.3-7.5-2-11.2l-2.4,11.2
		c0.6,0.1,1.3,0.3,2.2,0.3C166.9,368.7,167.7,368.6,168.2,368.5z"/>
	
		<linearGradient id="SVGID_00000072965169528364854590000011604558952913218494_" gradientUnits="userSpaceOnUse" x1="100.5769" y1="339.1188" x2="100.5769" y2="391.9263">
		<stop  offset="2.872297e-03" style="stop-color:#02224F"/>
		<stop  offset="0.3963" style="stop-color:#1F4779"/>
		<stop  offset="0.7897" style="stop-color:#38679C"/>
		<stop  offset="1" style="stop-color:#4273AA"/>
	</linearGradient>
	<path fill="url(#SVGID_00000072965169528364854590000011604558952913218494_)" d="M100.6,368.7c0.9,0,1.6-0.1,2.2-0.3
		c-0.7-3.7-1.3-7.5-2-11.2l-2.4,11.2C99,368.6,99.7,368.7,100.6,368.7z"/>
	
		<linearGradient id="SVGID_00000016781973014235162390000007906751878137081502_" gradientUnits="userSpaceOnUse" x1="100.5769" y1="366.4565" x2="100.5769" y2="354.6873">
		<stop  offset="0" style="stop-color:#17202D"/>
		<stop  offset="1" style="stop-color:#4273AA"/>
	</linearGradient>
	<path fill="url(#SVGID_00000016781973014235162390000007906751878137081502_)" d="M100.6,368.7c0.9,0,1.6-0.1,2.2-0.3
		c-0.7-3.7-1.3-7.5-2-11.2l-2.4,11.2C99,368.6,99.7,368.7,100.6,368.7z"/>
	<path fill="#17202D" d="M118.7,389.9v8.6h3.3v-8.6c-0.5,0-1,0-1.6,0C119.8,390,119.3,389.9,118.7,389.9z"/>
	
		<linearGradient id="SVGID_00000021079737363007532540000014691124487476834218_" gradientUnits="userSpaceOnUse" x1="120.0137" y1="373.3853" x2="120.0137" y2="312.8933">
		<stop  offset="0" style="stop-color:#17202D"/>
		<stop  offset="1" style="stop-color:#4273AA"/>
	</linearGradient>
	<path fill="url(#SVGID_00000021079737363007532540000014691124487476834218_)" d="M125.7,350.8l-4.9-32.1l-6.4,29.7
		c2.6,1.3,5.1,3,7.2,5.1C122.7,352.3,124.1,351.4,125.7,350.8z"/>
	
		<linearGradient id="SVGID_00000078037791079542086720000008881009844084163208_" gradientUnits="userSpaceOnUse" x1="118.6683" y1="373.3853" x2="118.6683" y2="312.8933">
		<stop  offset="0" style="stop-color:#17202D"/>
		<stop  offset="1" style="stop-color:#4273AA"/>
	</linearGradient>
	<path fill="url(#SVGID_00000078037791079542086720000008881009844084163208_)" d="M109.5,371l-3.7,17.3c3.4,0.8,7.8,1.5,12.9,1.6
		v-7.5h3.3v7.5c3.6-0.1,6.8-0.5,9.5-0.9l-2.7-17.3L109.5,371z"/>
	
		<linearGradient id="SVGID_00000036209061026518225410000004832543270369276837_" gradientUnits="userSpaceOnUse" x1="119.1847" y1="339.1188" x2="119.1847" y2="391.9263">
		<stop  offset="2.872297e-03" style="stop-color:#02224F"/>
		<stop  offset="0.3963" style="stop-color:#1F4779"/>
		<stop  offset="0.7897" style="stop-color:#38679C"/>
		<stop  offset="1" style="stop-color:#4273AA"/>
	</linearGradient>
	<path fill="url(#SVGID_00000036209061026518225410000004832543270369276837_)" d="M128.8,371.6l-3.2-20.8c-1.5,0.6-2.9,1.5-4.1,2.6
		c-2.1-2.1-4.5-3.8-7.2-5.1l-4.9,22.7L128.8,371.6z"/>
	
		<linearGradient id="SVGID_00000093178757893090914770000002222738485598002346_" gradientUnits="userSpaceOnUse" x1="119.1847" y1="373.3853" x2="119.1847" y2="312.8933">
		<stop  offset="0" style="stop-color:#17202D"/>
		<stop  offset="1" style="stop-color:#4273AA"/>
	</linearGradient>
	<path fill="url(#SVGID_00000093178757893090914770000002222738485598002346_)" d="M128.8,371.6l-3.2-20.8c-1.5,0.6-2.9,1.5-4.1,2.6
		c-2.1-2.1-4.5-3.8-7.2-5.1l-4.9,22.7L128.8,371.6z"/>
	<path fill="#17202D" d="M118.7,382.4v7.5c0.6,0,1.1,0.1,1.7,0.1c0.5,0,1,0,1.6,0v-7.5H118.7z"/>
	
		<linearGradient id="SVGID_00000016775660939757189800000007568077786799224203_" gradientUnits="userSpaceOnUse" x1="120.3231" y1="373.3853" x2="120.3231" y2="312.8933">
		<stop  offset="0" style="stop-color:#17202D"/>
		<stop  offset="1" style="stop-color:#4273AA"/>
	</linearGradient>
	<path fill="url(#SVGID_00000016775660939757189800000007568077786799224203_)" d="M118.7,382.4v7.5c0.6,0,1.1,0.1,1.7,0.1
		c0.5,0,1,0,1.6,0v-7.5H118.7z"/>
	<path fill="#5E97A7" d="M128.8,371.6l2.7,17.3c1.2-0.2,2.3-0.4,3.3-0.7c-1-5.5-1.9-11-2.9-16.6c-1.3-7.2-2.5-14.4-3.8-21.7
		c-2.1-12.2-4.2-24.3-6.3-36.5l-1.1,5.1l4.9,32.1L128.8,371.6z"/>
	<path fill="#17202D" d="M52.9,372.6v8.6h3.3v-8.6c-0.5,0-1,0-1.6,0C54.1,372.6,53.5,372.6,52.9,372.6z"/>
	
		<linearGradient id="SVGID_00000016784381907920529760000011582271870814875279_" gradientUnits="userSpaceOnUse" x1="60.9224" y1="355.2253" x2="60.9224" y2="300.7271">
		<stop  offset="0" style="stop-color:#17202D"/>
		<stop  offset="1" style="stop-color:#4273AA"/>
	</linearGradient>
	<path fill="url(#SVGID_00000016784381907920529760000011582271870814875279_)" d="M56.2,369.4v3.2c3.5-0.1,6.7-0.4,9.4-0.9l-0.3-2
		L56.2,369.4z"/>
	
		<linearGradient id="SVGID_00000047030792976053598380000014692051802743062426_" gradientUnits="userSpaceOnUse" x1="55.4597" y1="355.2253" x2="55.4597" y2="300.7271">
		<stop  offset="0" style="stop-color:#17202D"/>
		<stop  offset="1" style="stop-color:#4273AA"/>
	</linearGradient>
	<path fill="url(#SVGID_00000047030792976053598380000014692051802743062426_)" d="M61.3,343.1L55,301.3l-5.4,25.1
		c4.9,4.9,7.8,11.7,7.5,18.6C58.4,344.1,59.8,343.5,61.3,343.1z"/>
	
		<linearGradient id="SVGID_00000080901423870639742750000010661702725674604933_" gradientUnits="userSpaceOnUse" x1="46.5144" y1="355.2253" x2="46.5144" y2="300.7271">
		<stop  offset="0" style="stop-color:#17202D"/>
		<stop  offset="1" style="stop-color:#4273AA"/>
	</linearGradient>
	<path fill="url(#SVGID_00000080901423870639742750000010661702725674604933_)" d="M40.5,368.9l-0.4,2.1c3.4,0.8,7.8,1.5,12.9,1.6
		v-3.3L40.5,368.9z"/>
	
		<linearGradient id="SVGID_00000174599851550628969240000004483313481865895331_" gradientUnits="userSpaceOnUse" x1="52.9216" y1="339.1188" x2="52.9216" y2="391.9263">
		<stop  offset="2.872297e-03" style="stop-color:#02224F"/>
		<stop  offset="0.3963" style="stop-color:#1F4779"/>
		<stop  offset="0.7897" style="stop-color:#38679C"/>
		<stop  offset="1" style="stop-color:#4273AA"/>
	</linearGradient>
	<path fill="url(#SVGID_00000174599851550628969240000004483313481865895331_)" d="M52.9,369.3v-4.2h3.3v4.3l9.1,0.3l-4-26.6
		c-1.5,0.4-2.9,1-4.2,1.9c0.3-6.9-2.7-13.7-7.5-18.6l-9.1,42.5L52.9,369.3z"/>
	
		<linearGradient id="SVGID_00000124854052362491518090000014783128202549631135_" gradientUnits="userSpaceOnUse" x1="52.9216" y1="355.2253" x2="52.9216" y2="300.7271">
		<stop  offset="0" style="stop-color:#17202D"/>
		<stop  offset="1" style="stop-color:#4273AA"/>
	</linearGradient>
	<path fill="url(#SVGID_00000124854052362491518090000014783128202549631135_)" d="M52.9,369.3v-4.2h3.3v4.3l9.1,0.3l-4-26.6
		c-1.5,0.4-2.9,1-4.2,1.9c0.3-6.9-2.7-13.7-7.5-18.6l-9.1,42.5L52.9,369.3z"/>
	<path fill="#17202D" d="M56.2,365.1h-3.3v4.2v3.3c0.6,0,1.1,0.1,1.7,0.1c0.5,0,1,0,1.6,0v-3.2V365.1z"/>
	
		<linearGradient id="SVGID_00000093171790500463820940000000389197490400035755_" gradientUnits="userSpaceOnUse" x1="54.5858" y1="355.2253" x2="54.5858" y2="300.7271">
		<stop  offset="0" style="stop-color:#17202D"/>
		<stop  offset="1" style="stop-color:#4273AA"/>
	</linearGradient>
	<path fill="url(#SVGID_00000093171790500463820940000000389197490400035755_)" d="M56.2,365.1h-3.3v4.2v3.3c0.6,0,1.1,0.1,1.7,0.1
		c0.5,0,1,0,1.6,0v-3.2V365.1z"/>
	<path fill="#5E97A7" d="M65.3,369.7l0.3,2c1.2-0.2,2.4-0.4,3.5-0.7c-0.1-0.4-0.1-0.8-0.2-1.2c-1.6-9.1-3.2-18.1-4.7-27.2
		c-2.7-15.4-5.4-30.9-8.1-46.3l-1.1,5.1l6.3,41.8L65.3,369.7z"/>
</g>
<g id="UFO_00000080186345412710693930000007948462252595695263_">
	<g>
		
			<linearGradient id="SVGID_00000180362718431176102670000002964489636336335537_" gradientUnits="userSpaceOnUse" x1="234.5324" y1="153.6872" x2="306.3626" y2="422.1794" gradientTransform="matrix(0.9673 0.2536 -0.2536 0.9673 74.0323 -49.7478)">
			<stop  offset="2.900000e-07" style="stop-color:#E2E2B4;stop-opacity:0.8"/>
			<stop  offset="8.656792e-02" style="stop-color:#FFC179;stop-opacity:0.8"/>
			<stop  offset="0.3149" style="stop-color:#C29765;stop-opacity:0.6"/>
			<stop  offset="0.7902" style="stop-color:#48423D;stop-opacity:0.1838"/>
			<stop  offset="1" style="stop-color:#17202D;stop-opacity:0"/>
		</linearGradient>
		<polygon fill="url(#SVGID_00000180362718431176102670000002964489636336335537_)" points="194.8,212.7 154.4,458 372.5,452.7 
			307.9,208.6 		"/>
		
			<radialGradient id="SVGID_00000042702513633270166630000018087960130727829889_" cx="256.608" cy="-155.5081" r="277.6334" gradientTransform="matrix(0.3723 9.758104e-02 -9.758104e-02 0.3723 142.6643 219.1115)" gradientUnits="userSpaceOnUse">
			<stop  offset="2.900000e-07" style="stop-color:#E2E2B4;stop-opacity:0.8"/>
			<stop  offset="0.3782" style="stop-color:#FFC94B;stop-opacity:0.8"/>
			<stop  offset="0.5336" style="stop-color:#C29D43;stop-opacity:0.6"/>
			<stop  offset="0.8572" style="stop-color:#484433;stop-opacity:0.1838"/>
			<stop  offset="1" style="stop-color:#17202D;stop-opacity:0"/>
		</radialGradient>
		<circle fill="url(#SVGID_00000042702513633270166630000018087960130727829889_)" cx="253.4" cy="186.3" r="106.8"/>
		
			<linearGradient id="SVGID_00000062154447559286200340000005207081567830313918_" gradientUnits="userSpaceOnUse" x1="294.709" y1="137.5881" x2="366.5395" y2="406.0814" gradientTransform="matrix(0.9673 0.2536 -0.2536 0.9673 74.0323 -49.7478)">
			<stop  offset="2.900000e-07" style="stop-color:#F8DF7A"/>
			<stop  offset="8.656742e-02" style="stop-color:#E9D19F"/>
			<stop  offset="0.371" style="stop-color:#9F9277;stop-opacity:0.6886"/>
			<stop  offset="0.6734" style="stop-color:#56554F;stop-opacity:0.3576"/>
			<stop  offset="0.8909" style="stop-color:#282F36;stop-opacity:0.1194"/>
			<stop  offset="1" style="stop-color:#17202D;stop-opacity:0"/>
		</linearGradient>
		<polygon fill="url(#SVGID_00000062154447559286200340000005207081567830313918_)" points="294,209.7 302.1,208.8 356.2,453.1 
			342.3,453.4 		"/>
		
			<linearGradient id="SVGID_00000058563742832166768790000006395479787642370994_" gradientUnits="userSpaceOnUse" x1="239.9785" y1="152.2303" x2="311.8087" y2="420.7223" gradientTransform="matrix(0.9673 0.2536 -0.2536 0.9673 74.0323 -49.7478)">
			<stop  offset="2.900000e-07" style="stop-color:#F8DF7A"/>
			<stop  offset="8.656742e-02" style="stop-color:#E9D19F"/>
			<stop  offset="0.371" style="stop-color:#9F9277;stop-opacity:0.6886"/>
			<stop  offset="0.6734" style="stop-color:#56554F;stop-opacity:0.3576"/>
			<stop  offset="0.8909" style="stop-color:#282F36;stop-opacity:0.1194"/>
			<stop  offset="1" style="stop-color:#17202D;stop-opacity:0"/>
		</linearGradient>
		<path fill="url(#SVGID_00000058563742832166768790000006395479787642370994_)" d="M230.8,212.4l-15,244.5l20.3-0.5l2.9-153.9
			c16.6,3.3,30.5-16,44.9-0.1l17,152.4l21.6-0.5l-39.5-242.8L230.8,212.4z"/>
		
			<linearGradient id="SVGID_00000113330351631952819100000012821936815657118129_" gradientUnits="userSpaceOnUse" x1="170.7969" y1="170.7384" x2="242.6272" y2="439.2306" gradientTransform="matrix(0.9673 0.2536 -0.2536 0.9673 74.0323 -49.7478)">
			<stop  offset="2.900000e-07" style="stop-color:#F8DF7A"/>
			<stop  offset="8.656742e-02" style="stop-color:#E9D19F"/>
			<stop  offset="0.371" style="stop-color:#9F9277;stop-opacity:0.6886"/>
			<stop  offset="0.6734" style="stop-color:#56554F;stop-opacity:0.3576"/>
			<stop  offset="0.8909" style="stop-color:#282F36;stop-opacity:0.1194"/>
			<stop  offset="1" style="stop-color:#17202D;stop-opacity:0"/>
		</linearGradient>
		<polygon fill="url(#SVGID_00000113330351631952819100000012821936815657118129_)" points="209.9,211.7 174,457.5 199.4,456.9 
			219.7,211.6 		"/>
	</g>
	<g>
		<path fill="#223950" d="M147.1,189l22.9,30.5c11.1,15.7,148.9,13,161.1-2.9l22.5-29.3L147.1,189z"/>
		<path fill="#32374C" d="M353.5,187.2l-21.4,27.9c-27.9,9-102.4,13.2-163,3.3l-22-29.4L353.5,187.2z"/>
		
			<linearGradient id="SVGID_00000114044965358960349370000006315378351656485801_" gradientUnits="userSpaceOnUse" x1="224.9478" y1="-16.7424" x2="224.9478" y2="-396.4774" gradientTransform="matrix(0.3723 9.758104e-02 -9.758104e-02 0.3723 142.6643 219.1115)">
			<stop  offset="0" style="stop-color:#3474FF"/>
			<stop  offset="0.1119" style="stop-color:#2B62EF"/>
			<stop  offset="0.3786" style="stop-color:#193BCE"/>
			<stop  offset="0.6244" style="stop-color:#0B1FB6"/>
			<stop  offset="0.8394" style="stop-color:#030EA7"/>
			<stop  offset="1" style="stop-color:#0008A2"/>
		</linearGradient>
		<path fill="url(#SVGID_00000114044965358960349370000006315378351656485801_)" d="M451.7,142.4c1.6,36.4-97.5,75.4-198.4,79
			c-108.7,3.8-203.5-29.7-204.9-65.2L451.7,142.4z"/>
		<path fill="#17202D" d="M451.6,143.4c0.6,31.9-89.2,52.5-200.3,60.6C141,212,51.9,186.1,48.5,157.8L451.6,143.4z"/>
		<path fill="#0024CA" d="M451.7,142.4c1,28.3-88.5,54.3-199.9,58.1c-111.4,3.8-202.4-16.1-203.4-44.4
			c-0.5-13.6,19.8-26.6,53.4-36.9l2.7-0.5l0.8-0.5c36.2-10.7,86.9-18.2,143-20.1c45.1-1.5,86.8,0.8,120.6,6l0.9,0.3l1.5,0
			C419.6,112.1,451.1,125.8,451.7,142.4z"/>
		<path fill="#008BFF" d="M353.1,103.2c-13.6-1.6-25.6-2.5-33.1-3c1.4,1.9,2.6,3.8,3.7,5.5c5.2,0.1,10.7,0.4,16.3,0.7
			C344.4,104.5,352.3,103.4,353.1,103.2z"/>
		<path fill="#008BFF" d="M438.5,129.4c1.5,0.2,3,0.5,4.4,0.8c-5.1-4.3-12.4-8.2-21.1-11.7c-2.2,0.4-4.5,0.8-6.7,1.1
			c8.3,2.7,15.7,5.9,21.8,9.6C437.5,129.3,438,129.4,438.5,129.4z"/>
		<path fill="#008BFF" d="M446,133.2c-1.5-0.3-3-0.6-4.5-0.9c3.9,2.9,7,6,9.1,9.3C450,138.7,448.4,135.9,446,133.2z"/>
		<path fill="#008BFF" d="M414.5,115.9c-5.7-1.9-11.8-3.7-18.3-5.3c-8.6-2.1-17.6-3.8-26.3-5.2c-8.5,0.2-15.1,1.3-17.9,2
			c18.3,1.8,37.4,4.9,54,9.5C408.9,116.7,411.7,116.3,414.5,115.9z"/>
		<path fill="#032751" d="M323.5,118.2c9.2-6.5,19.9-13,47.7-13.8l-1.5-0.1l-0.9-0.3c-15.1-0.6-40.8,7-46.3,12.3L323.5,118.2z"/>
		<path fill="#17202D" d="M369.8,104.3c-25.1,0.8-37.3,6.6-46.2,12.9l-1-1c0,0,0,0,0,0l0.9,1.9c9.2-6.5,19.9-13,47.7-13.8
			L369.8,104.3z"/>
		<path fill="#032751" d="M105.2,118.1c28.8-4.5,59.1-3.6,85.8,2.3l-3.3,1.5c-22.7-7.7-46.6-7.3-86-2.8l2.7-0.5L105.2,118.1z"/>
		<path fill="#17202D" d="M187.7,121.7c-22.2-7.5-45.8-7.3-83.3-3l-2.7,0.5c39.4-4.5,63.3-4.9,86,2.8L187.7,121.7z"/>
		<path fill="#17202D" d="M61.1,173.3c8.8-17.4,87.5-27.8,93.4-30.1l1.6,2.7c-13.6,0.8-77.2,8.2-93.5,28.2c-0.4,0-1.1,0-1.1,0
			S61.2,173.6,61.1,173.3z"/>
		<path fill="#032751" d="M153.6,145c-22.4,3.7-79.3,10.6-92.1,29.2c0.3,0.2,0.6,0.2,1.1,0c16.3-20.1,79.9-27.5,93.5-28.2L153.6,145
			z"/>
		<path fill="#032751" d="M333.3,131.2c22.7-2.6,98.6,3,115.7,20c-0.1,0.7-0.8,1.9-0.8,1.9s-0.2,0-0.5-0.1
			c-3.7-10.7-62.3-25.1-114.8-19.8C332.6,132.5,332.8,131.9,333.3,131.2z"/>
		<path fill="#17202D" d="M448.2,153.2c-3.7-10.7-61.7-25.1-115.2-20.6c-0.1-0.3-0.2-0.5-0.1-0.7c-0.2,0.4-0.2,0.9,0,1.4
			c52.6-5.3,111.1,9.1,114.8,19.8C447.9,153.3,448.2,153.5,448.2,153.2z"/>
		<path fill="#032751" d="M254,166.7c10.2,5.1,14.1,24.1,12.6,33.2c0.6,0.9,1.9,1.2,1.9,1.2s1.7-0.5,2.2-1.5
			c-0.9-9-6.5-27.6-12-33.2C258.1,166.1,254.1,166.3,254,166.7z"/>
		<path fill="#17202D" d="M258.6,166.4c-1.3,0-4.5,0-4.6,0.3c10.2,5.1,14.1,24.1,12.6,33.2c-0.4,1.3,1.9,1.5,1.9,1.2
			C270,191,261.8,170.5,258.6,166.4z"/>
		<path fill="#008BFF" d="M61.8,171.7c1.7-4.5,8.6-10.1,27.7-14.3C79.5,160.6,67,165.1,61.8,171.7z"/>
		<path fill="#008BFF" d="M116.1,150.9c8.5-1.8,25.7-5.3,31.2-6.3C137.6,144.9,121.5,148.9,116.1,150.9z"/>
		<path fill="#008BFF" d="M112.1,117.2c10.4-1.3,29.5-2.7,45.1-1.4C141.7,113.7,123.6,114.6,112.1,117.2z"/>
		<path fill="#0088FF" d="M263.9,179.9c1.4,3.9,3.5,11.2,2.6,19.7c-1.8,0.1-19.5,1.1-29.1,0.8c3.5-0.1,27.2-2.6,27.1-3.1
			C265.5,191.6,265.2,184.5,263.9,179.9z"/>
		<path fill="#0088FF" d="M269.5,192.1c0.8,2.2,1.4,7.3,1.3,7.4c13.9-0.8,28.9-2.2,44.7-4.1c-15.7,1.6-30.2,1.3-43.2,1.2
			C271.9,194.9,271.2,193.8,269.5,192.1z"/>
		<path fill="#008BFF" d="M74.1,165.4c-2.9,1.4-9.9,6.2-11.4,8.8c1.9,1.7,14.4,7.5,28.1,11.6c-13.7-5.1-24.6-10.8-25.6-12.2
			C67.1,171.4,71.2,167.3,74.1,165.4z"/>
		<path fill="#008BFF" d="M439.9,145.1c3.4,1.7,7.4,4,9.1,6c1-1.8,2.2-4,2.5-7.3c-0.5,2.9-1.4,4.4-2.3,5.7
			C448.7,149,444.5,146.9,439.9,145.1z"/>
		<path fill="#008BFF" d="M418.3,139.5c12,2.9,27.3,8.2,29.3,13.6c-2.4,3-6.3,6.9-12.1,10.1c5.5-3.7,10.2-9,10.9-10.3
			C444.5,149.4,440,146.3,418.3,139.5z"/>
		<path fill="#008BFF" d="M355.8,132.6c16,0,37,1.5,52.1,4.9C392,135.6,376.8,134.5,355.8,132.6z"/>
		<path fill="#008BFF" d="M331,111.4c7-2.6,20.3-6.3,28.9-7C350.6,104.3,340.3,107,331,111.4z"/>
		<path fill="#008BFF" d="M359.9,105.3c3.5-0.6,10.7-0.8,11.4-0.8c1.2,0.2,12,2,15.9,2.9c-5.9-0.9-14.6-2.1-15.8-2.3
			C369.5,105,364.6,105,359.9,105.3z"/>
		<path fill="#008BFF" d="M64.2,155c0-0.3,0-0.6,0-0.9c-4.4,0.6-8.6,2.1-12.4,4.4c0,0,0,0-0.1,0c0.8,3.9,3.8,7.8,9,11.6
			c1.7-2.1,3.6-4.1,5.8-5.6c0.8-0.6,1.7-1,2.6-1.4C66,160.3,64.3,157.6,64.2,155z"/>
		<path fill="#008BFF" d="M86.7,129.2c0.9,0.2,1.7,0.4,2.6,0.6c10.1-5.3,21-9.4,28.1-11.6c-4.6-0.1-14.8,1.5-14.8,1.5
			c-7.7,2.2-15.6,5-22.9,8.4C82,128.3,84.4,128.7,86.7,129.2z"/>
		<path fill="#008BFF" d="M83.5,130.7c-2.8-0.5-5.7-0.7-8.5-0.2c-12.9,6.8-22.7,15.3-23.4,24.6c4.2-2.2,8.7-3.6,13.3-4.1
			c2.4-7.2,11.4-14,21.8-19.7C85.5,131,84.5,130.8,83.5,130.7z"/>
		<path fill="#008BFF" d="M108.4,188.4c13.7,3.2,29.9,6,48.6,8.3c-14.2-2.9-28.8-6.8-42-11.2C112.7,186.3,110.5,187.2,108.4,188.4z"
			/>
		<path fill="#008BFF" d="M112.3,184.6c-15.3-5.3-28.7-11.2-37.4-17c-1.3,0.6-2.6,1.1-3.9,1.8c-1.9,1-3.5,2.6-4.8,4.3
			c9,5.1,22.3,10,39.7,14.2C107.9,186.5,110,185.5,112.3,184.6z"/>
		<path fill="#008BFF" d="M144.7,109c0.8,0.2,1.6,0.4,2.4,0.7c5.7-1.3,11.3-2.5,16.3-3.7C158.8,106.5,152.1,107.6,144.7,109z"/>
		<path fill="#008BFF" d="M140.3,109.9c-11,2.2-22.9,5-30.7,7.2c0,0,11-1.7,14.2-2c5.9-1.5,12.7-3.1,19.6-4.6
			C142.3,110.3,141.3,110.1,140.3,109.9z"/>
	</g>
	<g>
		<path fill="#00085E" d="M431.4,154.9c-3.8,3.3-14.6-1.2-15.1-5.1c-0.5-3.9,7.5-3.5,12-1.5C432.3,150,433.6,153,431.4,154.9z"/>
		<path fill="#00085E" d="M416.4,158.9c-2.2,1.9-8.6-0.7-8.9-3c-0.3-2.3,4.4-2,7.1-0.9C416.9,156.1,417.7,157.8,416.4,158.9z"/>
		<path fill="#00085E" d="M409.5,148.5c-1.3,1.5-4.5,0.2-4.5-1.4s2.5-1.8,3.8-1.1C410,146.4,410.3,147.6,409.5,148.5z"/>
		<path fill="#0530CE" d="M143.3,133.4c4.8,0.1,7.1,6.4,4.1,7.7c-3.1,1.3-11.7,0.9-12.7-1.5C133.7,137.1,139.1,133.3,143.3,133.4z"
			/>
		<path fill="#0530CE" d="M134.7,126.1c2.1,0,2,2.6,0.9,3.3c-1.3,0.8-4.3,0.5-4.7-0.6C130.4,127.7,132.8,126,134.7,126.1z"/>
		<path fill="#0530CE" d="M130.1,134c1.2,0,1.2,1.8,0.6,2.3c-0.7,0.5-2.1-0.1-2.3-0.8C128.2,134.8,129.1,134,130.1,134z"/>
		<path fill="#0530CE" d="M338.4,114.8c-0.6-2.3,6.1-4.4,7.6-1.5c1.5,2.9-0.7,5.9-3.3,4.8C340.2,117.1,338.9,116.6,338.4,114.8z"/>
		<path fill="#00085E" d="M219.9,193.2c-6.4-4.5,10.5-11.9,11.2-6.7C231.9,191.7,224.7,196.7,219.9,193.2z"/>
		<path fill="#00085E" d="M240.7,187.4c-3.4,1.4-1.2,5.6,4,4.3C249.9,190.2,242,186.8,240.7,187.4z"/>
		<path fill="#00085E" d="M327.4,184.7c-0.8-2,3.2-4.1,4.7-3c1.5,1.1,4.4,2.4,2.9,3.7C333.5,186.7,328.1,186.4,327.4,184.7z"/>
		<path fill="#00085E" d="M86.6,166.1c-1-3.3,6-6.5,8.1-3c2.1,3.5,1.5,7.6-0.3,7.5C92.7,170.5,87.3,168.3,86.6,166.1z"/>
		<path fill="#0530CE" d="M348.9,121c0.5,1.1,4.1,1.8,4.1-0.4s-0.9-3.8-2.3-4.7C349.3,115.1,348.3,119.8,348.9,121z"/>
	</g>
	<g>
		<path fill="#00026A" d="M153,139.6c5.2,34.7,133.7,51.6,174.3,30.8c38.3-19.5,12.2-47.4,1.3-55.7C314,122.8,153,139.6,153,139.6z"
			/>
		<path fill="#002978" d="M161.2,118.7c-12.3,3.8-29.8,52.2,84.7,48.4c108.4-3.7,88.9-50.7,81.4-54.3
			C321.2,109.8,161.2,118.7,161.2,118.7z"/>
		<path fill="#002978" d="M155.3,127.2c26-55,132.9-90.5,174.2-12c11.7,22.3-14.8,36.5-56.2,42.1
			C213.1,165.4,143.6,151.9,155.3,127.2z"/>
		
			<linearGradient id="SVGID_00000182501254839698631660000008917915268842742410_" gradientUnits="userSpaceOnUse" x1="174.3294" y1="51.0973" x2="223.2585" y2="161.5823" gradientTransform="matrix(0.9673 0.2536 -0.2536 0.9673 74.0323 -49.7478)">
			<stop  offset="2.900000e-07" style="stop-color:#E3CF3D"/>
			<stop  offset="0.44" style="stop-color:#E1C653"/>
			<stop  offset="1" style="stop-color:#DEBC6C"/>
		</linearGradient>
		<path fill="url(#SVGID_00000182501254839698631660000008917915268842742410_)" d="M156.2,126.6c33.3-88.9,131.7-89.9,172.4-12.5
			C356.1,166.4,139.7,170.6,156.2,126.6z"/>
		<path fill="#32374C" d="M328.6,114.1c-13-24.6-31.8-41.3-52.5-49.8c16.9,8.6,31.2,24.3,41.8,44.8c22.7,44.1-134.7,54.4-161.6,26.8
			C171.9,169.7,354,162.4,328.6,114.1z"/>
		
			<linearGradient id="SVGID_00000107574015540459922760000012364186629859069623_" gradientUnits="userSpaceOnUse" x1="133.8691" y1="70.6235" x2="167.284" y2="147.3785" gradientTransform="matrix(0.9673 0.2536 -0.2536 0.9673 74.0323 -49.7478)">
			<stop  offset="2.900000e-07" style="stop-color:#FFEA8B"/>
			<stop  offset="0.2582" style="stop-color:#F1DE86"/>
			<stop  offset="0.6744" style="stop-color:#E2D180"/>
			<stop  offset="1" style="stop-color:#DCCC7E"/>
		</linearGradient>
		<path fill="url(#SVGID_00000107574015540459922760000012364186629859069623_)" d="M181.1,91.3c-1.6,2-3.1,3.9-4.5,5.9
			c-0.7,12.7,3.9,26.4,11,36.6c1.7,2.4,3.5,4.5,5.5,6.5c7.1,0.9,15.1,1.3,23.3,1.2c-6.7-5.4-12.9-11.7-18.1-18.4
			C191,113.5,186.1,102.4,181.1,91.3z"/>
		
			<linearGradient id="SVGID_00000054947535651175189910000018232116357533222590_" gradientUnits="userSpaceOnUse" x1="183.0927" y1="48.8949" x2="216.4325" y2="125.4773" gradientTransform="matrix(0.9673 0.2536 -0.2536 0.9673 74.0323 -49.7478)">
			<stop  offset="2.900000e-07" style="stop-color:#FFEA8B"/>
			<stop  offset="0.2582" style="stop-color:#F1DE86"/>
			<stop  offset="0.6744" style="stop-color:#E2D180"/>
			<stop  offset="1" style="stop-color:#DCCC7E"/>
		</linearGradient>
		<path fill="url(#SVGID_00000054947535651175189910000018232116357533222590_)" d="M250,89.7c-8-3.8-15.8-7.9-23.3-12.7
			c-4.3-2.7-8.9-5.3-12.9-8.7c-2,0.7-4,1.5-5.9,2.5c-3.8,1.8-7.3,3.7-10.5,5.9c1.5,2.7,4.1,4.9,6.3,7c3.4,3.3,6.8,6.5,10.4,9.4
			c14,11.5,30.4,20.6,46.9,27.8c6,2.6,12.1,4.9,18.3,6.9c8.7-5.7,14.1-13.1,15.8-21.1C279.7,102,264.5,96.5,250,89.7z"/>
		
			<linearGradient id="SVGID_00000020376297674874552470000006106162977318758029_" gradientUnits="userSpaceOnUse" x1="196.8624" y1="42.8593" x2="230.0589" y2="119.1124" gradientTransform="matrix(0.9673 0.2536 -0.2536 0.9673 74.0323 -49.7478)">
			<stop  offset="2.900000e-07" style="stop-color:#FFEA8B"/>
			<stop  offset="0.2582" style="stop-color:#F1DE86"/>
			<stop  offset="0.6744" style="stop-color:#E2D180"/>
			<stop  offset="1" style="stop-color:#DCCC7E"/>
		</linearGradient>
		<path fill="url(#SVGID_00000020376297674874552470000006106162977318758029_)" d="M235.7,72.4c14.8,8.7,30.6,15.4,46.8,21.1
			c4.2,1.5,8.4,2.9,12.6,4.2c-1-6.1-4.2-12.2-9.9-17.7c-14.6-14.2-38.1-19.6-60.8-14.7C228.2,67.7,231.9,70.1,235.7,72.4z"/>
		
			<linearGradient id="SVGID_00000128467057560031275950000017851708690701152938_" gradientUnits="userSpaceOnUse" x1="160.8787" y1="58.7184" x2="194.2731" y2="135.4263" gradientTransform="matrix(0.9673 0.2536 -0.2536 0.9673 74.0323 -49.7478)">
			<stop  offset="2.900000e-07" style="stop-color:#FFEA8B"/>
			<stop  offset="0.2582" style="stop-color:#F1DE86"/>
			<stop  offset="0.6744" style="stop-color:#E2D180"/>
			<stop  offset="1" style="stop-color:#DCCC7E"/>
		</linearGradient>
		<path fill="url(#SVGID_00000128467057560031275950000017851708690701152938_)" d="M195,78.3c-4.2,3-7.8,6.3-11,9.8
			c2.7,5.9,5.3,11.9,8.3,17.7c3,5.8,6.4,11.5,10.5,16.5c3.8,4.7,8.2,9,12.6,13c2.3,2.1,4.8,4.1,7.3,6.1c14.8-0.7,29.9-3,42.4-7.1
			C222.6,118.4,197.4,83.5,195,78.3z"/>
		
			<linearGradient id="SVGID_00000046330662895935116350000013550885545948361919_" gradientUnits="userSpaceOnUse" x1="111.5012" y1="80.4089" x2="144.9807" y2="157.3121" gradientTransform="matrix(0.9673 0.2536 -0.2536 0.9673 74.0323 -49.7478)">
			<stop  offset="2.900000e-07" style="stop-color:#FFEA8B"/>
			<stop  offset="0.2582" style="stop-color:#F1DE86"/>
			<stop  offset="0.6744" style="stop-color:#E2D180"/>
			<stop  offset="1" style="stop-color:#DCCC7E"/>
		</linearGradient>
		<path fill="url(#SVGID_00000046330662895935116350000013550885545948361919_)" d="M176.9,128.6c-3.1-6.6-5.3-13.8-6.3-21.1
			c-2.8,5.3-4.8,10.5-6.4,14.9c-2.7,7.7,5.4,13.2,18.7,16.3C180.6,135.5,178.6,132.2,176.9,128.6z"/>
		<path fill="#FFFFFF" d="M166.5,121.6c11.1-31,50.2-75.2,110-46.1C227.8,60,192.4,76.7,166.5,121.6z"/>
		<path fill="#FFFFFF" d="M203,87.3c20.3-17.6,51.2-18.8,73.4-6C254.4,75.1,226,73.7,203,87.3z"/>
		<path fill="#FFFFFF" d="M310.9,104.1c4.2,6.6,13,25.4-36.3,38.2C297.5,132.6,315.7,123.1,310.9,104.1z"/>
		<path fill="#008BFF" d="M154.1,134.2c1.4,10.8,23.2,21.1,55,24C179.7,156.3,155.1,148.5,154.1,134.2z"/>
	</g>
	<g>
		<g>
			<path fill="#17202D" d="M153.4,212.9c-1.5-0.5-1.9-5.3,7.6-4c9,1.2,7.6,5.5,6.2,5.9C166.6,214.9,153.4,212.9,153.4,212.9z"/>
			
				<linearGradient id="SVGID_00000006678536169665524400000010301665470803941304_" gradientUnits="userSpaceOnUse" x1="96.2332" y1="483.375" x2="97.7063" y2="492.9152" gradientTransform="matrix(0.9985 5.549327e-02 5.549327e-02 -0.9985 36.0274 696.5454)">
				<stop  offset="2.900000e-07" style="stop-color:#F7EAC9"/>
				<stop  offset="0.2107" style="stop-color:#F0DCAD"/>
				<stop  offset="0.6624" style="stop-color:#DFB967"/>
				<stop  offset="1" style="stop-color:#D19D2E"/>
			</linearGradient>
			<path fill="url(#SVGID_00000006678536169665524400000010301665470803941304_)" d="M153,212.2c2,7.7,10.4,8.7,14.3,2.5
				C169.9,210.5,152,208.4,153,212.2z"/>
			<path fill="#32374C" d="M167.3,214.7c-0.9,1.4-2,2.4-3.2,3.1c1-0.7,1.9-1.6,2.7-2.8c2.2-3.5-9.8-5.5-13.3-4
				C156,208.9,169.6,211,167.3,214.7z"/>
			
				<linearGradient id="SVGID_00000101814161410758339210000004640511812427883152_" gradientUnits="userSpaceOnUse" x1="90.8352" y1="485.861" x2="93.1501" y2="491.6485" gradientTransform="matrix(0.9985 5.549327e-02 5.549327e-02 -0.9985 36.0274 696.5454)">
				<stop  offset="2.900000e-07" style="stop-color:#FFEA8B"/>
				<stop  offset="0.2582" style="stop-color:#F1DE86"/>
				<stop  offset="0.6744" style="stop-color:#E2D180"/>
				<stop  offset="1" style="stop-color:#DCCC7E"/>
			</linearGradient>
			<path fill="url(#SVGID_00000101814161410758339210000004640511812427883152_)" d="M155.8,212.5c-0.7,0.4-1.3,0.9-1.9,1.4
				c-0.2-0.5-0.5-1-0.6-1.6c-0.4-1.4,2.3-1.5,5.4-0.9c-0.2,0-0.3,0.1-0.5,0.1C157.4,211.7,156.6,212.1,155.8,212.5z"/>
			
				<linearGradient id="SVGID_00000100347543823790508130000010321777061251312313_" gradientUnits="userSpaceOnUse" x1="97.3455" y1="483.2572" x2="99.6605" y2="489.0447" gradientTransform="matrix(0.9985 5.549327e-02 5.549327e-02 -0.9985 36.0274 696.5454)">
				<stop  offset="2.900000e-07" style="stop-color:#FFEA8B"/>
				<stop  offset="0.2582" style="stop-color:#F1DE86"/>
				<stop  offset="0.6744" style="stop-color:#E2D180"/>
				<stop  offset="1" style="stop-color:#DCCC7E"/>
			</linearGradient>
			<path fill="url(#SVGID_00000100347543823790508130000010321777061251312313_)" d="M163.9,217c-0.9,0.1-1.7,0.3-2.5,0.5
				c-0.8,0.2-1.5,0.4-2.2,0.8c0,0,0,0,0,0c-0.8-0.2-1.5-0.5-2.2-0.9c0.8-0.7,1.8-1.2,2.8-1.5c1.9-0.6,3.9-1,5.9-1.2
				c0.4,0.7,0.4,1.4-0.4,2.1C164.8,216.8,164.3,216.9,163.9,217z"/>
			
				<linearGradient id="SVGID_00000007401023052235520490000012753434206974206392_" gradientUnits="userSpaceOnUse" x1="98.5328" y1="482.7824" x2="100.8478" y2="488.57" gradientTransform="matrix(0.9985 5.549327e-02 5.549327e-02 -0.9985 36.0274 696.5454)">
				<stop  offset="2.900000e-07" style="stop-color:#FFEA8B"/>
				<stop  offset="0.2582" style="stop-color:#F1DE86"/>
				<stop  offset="0.6744" style="stop-color:#E2D180"/>
				<stop  offset="1" style="stop-color:#DCCC7E"/>
			</linearGradient>
			<path fill="url(#SVGID_00000007401023052235520490000012753434206974206392_)" d="M161.6,218c0.8-0.2,1.6-0.3,2.4-0.5
				c0.1,0,0.1,0,0.2,0c-1.3,0.7-2.7,1-4,0.9C160.6,218.3,161.1,218.1,161.6,218z"/>
			
				<linearGradient id="SVGID_00000005233870320404203140000007555991534229035451_" gradientUnits="userSpaceOnUse" x1="95.1081" y1="484.1521" x2="97.423" y2="489.9395" gradientTransform="matrix(0.9985 5.549327e-02 5.549327e-02 -0.9985 36.0274 696.5454)">
				<stop  offset="2.900000e-07" style="stop-color:#FFEA8B"/>
				<stop  offset="0.2582" style="stop-color:#F1DE86"/>
				<stop  offset="0.6744" style="stop-color:#E2D180"/>
				<stop  offset="1" style="stop-color:#DCCC7E"/>
			</linearGradient>
			<path fill="url(#SVGID_00000005233870320404203140000007555991534229035451_)" d="M156.2,216.9c-0.7-0.5-1.2-1.2-1.7-2
				c0.6-0.5,1.2-1,1.9-1.4c0.7-0.4,1.4-0.7,2.2-0.9c0.9-0.3,1.8-0.4,2.8-0.5c1.5,0.5,2.8,1.2,3.7,1.9c-1,0.1-1.9,0.2-2.9,0.4
				C160,214.8,157.8,215.4,156.2,216.9z"/>
			<path fill="#FFFFFF" d="M154.2,212.8c0.4,3,3.4,5.9,7.2,5.5C158,217.5,155.6,215,154.2,212.8z"/>
			<path fill="#FFFFFF" d="M166.1,215.2c0.5-0.7,1.3-2-2.5-3.4C166.1,213.3,166.4,213.8,166.1,215.2z"/>
		</g>
		<g>
			<path fill="#17202D" d="M349.7,206.2c-1.6,0.1-3.7-4.3,5.6-6.5c8.8-2.1,9.1,2.4,7.9,3.3C362.8,203.4,349.7,206.2,349.7,206.2z"/>
			
				<linearGradient id="SVGID_00000023989403774800864330000008104281307973564836_" gradientUnits="userSpaceOnUse" x1="314.7715" y1="499.9728" x2="316.2446" y2="509.5131" gradientTransform="matrix(0.9512 -0.3085 -0.3085 -0.9512 211.9618 782.848)">
				<stop  offset="2.900000e-07" style="stop-color:#F7EAC9"/>
				<stop  offset="0.2107" style="stop-color:#F0DCAD"/>
				<stop  offset="0.6624" style="stop-color:#DFB967"/>
				<stop  offset="1" style="stop-color:#D19D2E"/>
			</linearGradient>
			<path fill="url(#SVGID_00000023989403774800864330000008104281307973564836_)" d="M349.1,205.7c4.7,6.4,12.8,4.3,14.2-2.8
				C364.2,198,346.8,202.5,349.1,205.7z"/>
			<path fill="#32374C" d="M363.3,202.9c-0.3,1.6-1,3-1.9,4c0.7-1,1.2-2.2,1.5-3.5c0.8-4-11.1-1.6-13.8,1.1
				C350.7,201.6,364.1,198.6,363.3,202.9z"/>
			
				<linearGradient id="SVGID_00000149341049465177375570000005271822497460828574_" gradientUnits="userSpaceOnUse" x1="309.3734" y1="502.4594" x2="311.6884" y2="508.2466" gradientTransform="matrix(0.9512 -0.3085 -0.3085 -0.9512 211.9618 782.848)">
				<stop  offset="2.900000e-07" style="stop-color:#FFEA8B"/>
				<stop  offset="0.2582" style="stop-color:#F1DE86"/>
				<stop  offset="0.6744" style="stop-color:#E2D180"/>
				<stop  offset="1" style="stop-color:#DCCC7E"/>
			</linearGradient>
			<path fill="url(#SVGID_00000149341049465177375570000005271822497460828574_)" d="M351.8,205c-0.5,0.6-0.9,1.3-1.3,2
				c-0.4-0.4-0.8-0.8-1.2-1.3c-0.9-1.1,1.6-2.2,4.7-2.8c-0.1,0.1-0.3,0.2-0.4,0.3C353,203.7,352.3,204.3,351.8,205z"/>
			
				<linearGradient id="SVGID_00000056409512878395897430000013043675989349601169_" gradientUnits="userSpaceOnUse" x1="315.8836" y1="499.8551" x2="318.1985" y2="505.6424" gradientTransform="matrix(0.9512 -0.3085 -0.3085 -0.9512 211.9618 782.848)">
				<stop  offset="2.900000e-07" style="stop-color:#FFEA8B"/>
				<stop  offset="0.2582" style="stop-color:#F1DE86"/>
				<stop  offset="0.6744" style="stop-color:#E2D180"/>
				<stop  offset="1" style="stop-color:#DCCC7E"/>
			</linearGradient>
			<path fill="url(#SVGID_00000056409512878395897430000013043675989349601169_)" d="M360.9,206.2c-0.7,0.4-1.5,0.9-2.2,1.4
				c-0.7,0.4-1.3,0.9-1.8,1.6c0,0,0,0,0,0c-0.8,0.1-1.6,0.1-2.4-0.1c0.5-1,1.3-1.8,2.1-2.4c1.5-1.3,3.3-2.3,5-3.2
				c0.6,0.5,0.8,1.1,0.4,2.1C361.7,205.8,361.3,206,360.9,206.2z"/>
			
				<linearGradient id="SVGID_00000144300933488670411960000000426401221643278227_" gradientUnits="userSpaceOnUse" x1="317.0708" y1="499.3802" x2="319.3857" y2="505.1674" gradientTransform="matrix(0.9512 -0.3085 -0.3085 -0.9512 211.9618 782.848)">
				<stop  offset="2.900000e-07" style="stop-color:#FFEA8B"/>
				<stop  offset="0.2582" style="stop-color:#F1DE86"/>
				<stop  offset="0.6744" style="stop-color:#E2D180"/>
				<stop  offset="1" style="stop-color:#DCCC7E"/>
			</linearGradient>
			<path fill="url(#SVGID_00000144300933488670411960000000426401221643278227_)" d="M359.1,208.1c0.7-0.5,1.4-0.9,2.1-1.3
				c0,0,0.1-0.1,0.1-0.1c-0.9,1.2-2.1,1.9-3.4,2.3C358.3,208.6,358.7,208.3,359.1,208.1z"/>
			
				<linearGradient id="SVGID_00000060002408567997035340000004962796850208618922_" gradientUnits="userSpaceOnUse" x1="313.6463" y1="500.7501" x2="315.9612" y2="506.5374" gradientTransform="matrix(0.9512 -0.3085 -0.3085 -0.9512 211.9618 782.848)">
				<stop  offset="2.900000e-07" style="stop-color:#FFEA8B"/>
				<stop  offset="0.2582" style="stop-color:#F1DE86"/>
				<stop  offset="0.6744" style="stop-color:#E2D180"/>
				<stop  offset="1" style="stop-color:#DCCC7E"/>
			</linearGradient>
			<path fill="url(#SVGID_00000060002408567997035340000004962796850208618922_)" d="M353.7,208.9c-0.8-0.3-1.6-0.7-2.3-1.2
				c0.4-0.7,0.7-1.4,1.3-2c0.5-0.6,1.1-1.1,1.7-1.6c0.7-0.6,1.6-1,2.4-1.5c1.6-0.1,3.1,0.1,4.1,0.4c-0.9,0.4-1.7,0.9-2.5,1.4
				C356.6,205.6,354.7,207,353.7,208.9z"/>
			<path fill="#FFFFFF" d="M350.4,205.8c1.4,2.7,5.3,4.3,8.7,2.6C355.6,208.9,352.5,207.4,350.4,205.8z"/>
			<path fill="#FFFFFF" d="M362.4,203.8c0.2-0.8,0.5-2.3-3.6-2.2C361.7,202,362.2,202.4,362.4,203.8z"/>
		</g>
		<g>
			<path fill="#17202D" d="M259.7,218.8c-2.1-0.3-4-6.5,8.9-7.4c12.2-0.8,11.6,5.2,9.8,6.2C277.7,217.9,259.7,218.8,259.7,218.8z"/>
			
				<linearGradient id="SVGID_00000122704844152746599390000000141325559614827951_" gradientUnits="userSpaceOnUse" x1="219.7081" y1="458.5387" x2="221.6943" y2="471.4019" gradientTransform="matrix(0.9891 -0.1474 -0.1474 -0.9891 119.0052 711.6142)">
				<stop  offset="2.900000e-07" style="stop-color:#F7EAC9"/>
				<stop  offset="0.2107" style="stop-color:#F0DCAD"/>
				<stop  offset="0.6624" style="stop-color:#DFB967"/>
				<stop  offset="1" style="stop-color:#D19D2E"/>
			</linearGradient>
			<path fill="url(#SVGID_00000122704844152746599390000000141325559614827951_)" d="M259,217.9c4.8,9.6,16.1,8.6,19.5-0.6
				C280.9,211.1,256.7,213.2,259,217.9z"/>
			<path fill="#32374C" d="M278.5,217.4c-0.8,2.1-2,3.7-3.4,5c1.1-1.1,2.1-2.6,2.8-4.4c1.9-5.2-14.4-4.7-18.7-1.6
				C262.1,212.8,280.6,211.9,278.5,217.4z"/>
			
				<linearGradient id="SVGID_00000145768295383908520300000002253624148270128814_" gradientUnits="userSpaceOnUse" x1="212.43" y1="461.8915" x2="215.5511" y2="469.6944" gradientTransform="matrix(0.9891 -0.1474 -0.1474 -0.9891 119.0052 711.6142)">
				<stop  offset="2.900000e-07" style="stop-color:#FFEA8B"/>
				<stop  offset="0.2582" style="stop-color:#F1DE86"/>
				<stop  offset="0.6744" style="stop-color:#E2D180"/>
				<stop  offset="1" style="stop-color:#DCCC7E"/>
			</linearGradient>
			<path fill="url(#SVGID_00000145768295383908520300000002253624148270128814_)" d="M262.7,217.6c-0.8,0.7-1.4,1.5-2.1,2.4
				c-0.5-0.6-0.9-1.2-1.3-2c-0.9-1.7,2.7-2.6,6.8-2.6c-0.2,0.1-0.4,0.2-0.6,0.3C264.6,216.2,263.6,216.8,262.7,217.6z"/>
			
				<linearGradient id="SVGID_00000178887123976191840980000004673245613481766061_" gradientUnits="userSpaceOnUse" x1="221.2076" y1="458.3801" x2="224.3287" y2="466.183" gradientTransform="matrix(0.9891 -0.1474 -0.1474 -0.9891 119.0052 711.6142)">
				<stop  offset="2.900000e-07" style="stop-color:#FFEA8B"/>
				<stop  offset="0.2582" style="stop-color:#F1DE86"/>
				<stop  offset="0.6744" style="stop-color:#E2D180"/>
				<stop  offset="1" style="stop-color:#DCCC7E"/>
			</linearGradient>
			<path fill="url(#SVGID_00000178887123976191840980000004673245613481766061_)" d="M274.6,221.3c-1.1,0.4-2.2,0.9-3.2,1.4
				c-1,0.5-1.9,1-2.7,1.7c0,0,0,0,0,0c-1.1,0-2.1-0.2-3.2-0.6c0.9-1.2,2.1-2,3.3-2.8c2.3-1.3,4.8-2.3,7.4-3.1
				c0.7,0.8,0.9,1.7,0.1,2.8C275.8,220.9,275.2,221.1,274.6,221.3z"/>
			
				<linearGradient id="SVGID_00000075124663710020749280000001347579905397624985_" gradientUnits="userSpaceOnUse" x1="222.8082" y1="457.7398" x2="225.9293" y2="465.5425" gradientTransform="matrix(0.9891 -0.1474 -0.1474 -0.9891 119.0052 711.6142)">
				<stop  offset="2.900000e-07" style="stop-color:#FFEA8B"/>
				<stop  offset="0.2582" style="stop-color:#F1DE86"/>
				<stop  offset="0.6744" style="stop-color:#E2D180"/>
				<stop  offset="1" style="stop-color:#DCCC7E"/>
			</linearGradient>
			<path fill="url(#SVGID_00000075124663710020749280000001347579905397624985_)" d="M271.9,223.3c1-0.5,2-0.9,3.1-1.3
				c0.1,0,0.1-0.1,0.2-0.1c-1.5,1.3-3.3,2.1-5.1,2.3C270.6,223.9,271.2,223.6,271.9,223.3z"/>
			
				<linearGradient id="SVGID_00000028287785801118510090000008174402934193739913_" gradientUnits="userSpaceOnUse" x1="218.191" y1="459.5869" x2="221.3121" y2="467.3897" gradientTransform="matrix(0.9891 -0.1474 -0.1474 -0.9891 119.0052 711.6142)">
				<stop  offset="2.900000e-07" style="stop-color:#FFEA8B"/>
				<stop  offset="0.2582" style="stop-color:#F1DE86"/>
				<stop  offset="0.6744" style="stop-color:#E2D180"/>
				<stop  offset="1" style="stop-color:#DCCC7E"/>
			</linearGradient>
			<path fill="url(#SVGID_00000028287785801118510090000008174402934193739913_)" d="M264.5,223.3c-1-0.5-2-1.2-2.8-2.2
				c0.7-0.8,1.3-1.7,2.1-2.4c0.8-0.7,1.7-1.3,2.6-1.8c1.1-0.6,2.3-1,3.5-1.4c2.1,0.3,4.1,0.8,5.4,1.5c-1.2,0.4-2.5,0.8-3.7,1.4
				C269,219.5,266.2,220.9,264.5,223.3z"/>
			<path fill="#FFFFFF" d="M260.8,218.4c1.3,3.9,6.1,6.9,11,5.3C267,223.7,263.2,221,260.8,218.4z"/>
			<path fill="#FFFFFF" d="M277.2,218.4c0.4-1,1.2-2.9-4.3-3.8C276.6,215.8,277.1,216.5,277.2,218.4z"/>
		</g>
		<g>
			<path fill="#17202D" d="M85.4,193.2c-0.9-0.5-0.6-3.7,5.5-1.7c5.7,1.9,4.3,4.5,3.3,4.6C93.8,196.2,85.4,193.2,85.4,193.2z"/>
			
				<linearGradient id="SVGID_00000039831386057225918390000002260054440274117806_" gradientUnits="userSpaceOnUse" x1="8.0619" y1="555.0372" x2="9.0421" y2="561.3849" gradientTransform="matrix(0.9716 0.237 0.237 -0.9716 -51.1331 735.3975)">
				<stop  offset="2.900000e-07" style="stop-color:#F7EAC9"/>
				<stop  offset="0.2107" style="stop-color:#F0DCAD"/>
				<stop  offset="0.6624" style="stop-color:#DFB967"/>
				<stop  offset="1" style="stop-color:#D19D2E"/>
			</linearGradient>
			<path fill="url(#SVGID_00000039831386057225918390000002260054440274117806_)" d="M85.3,192.7c0.4,5.3,5.7,6.9,9,3.4
				C96.5,193.7,85.1,190.1,85.3,192.7z"/>
			<path fill="#32374C" d="M94.3,196.1c-0.7,0.8-1.6,1.3-2.5,1.6c0.7-0.3,1.4-0.8,2.1-1.5c1.9-2-5.7-4.8-8.2-4.2
				C87.6,190.9,96.2,194,94.3,196.1z"/>
			
				<linearGradient id="SVGID_00000084508963887998744790000018071719496534777495_" gradientUnits="userSpaceOnUse" x1="4.4703" y1="556.6918" x2="6.0105" y2="560.5424" gradientTransform="matrix(0.9716 0.237 0.237 -0.9716 -51.1331 735.3975)">
				<stop  offset="2.900000e-07" style="stop-color:#FFEA8B"/>
				<stop  offset="0.2582" style="stop-color:#F1DE86"/>
				<stop  offset="0.6744" style="stop-color:#E2D180"/>
				<stop  offset="1" style="stop-color:#DCCC7E"/>
			</linearGradient>
			<path fill="url(#SVGID_00000084508963887998744790000018071719496534777495_)" d="M87,193.2c-0.5,0.2-0.9,0.4-1.4,0.7
				c-0.1-0.4-0.2-0.7-0.2-1.1c-0.1-1,1.7-0.7,3.6,0.1c-0.1,0-0.2,0-0.3,0C88.1,193,87.6,193.1,87,193.2z"/>
			
				<linearGradient id="SVGID_00000116234600481928824580000001109655918406392502_" gradientUnits="userSpaceOnUse" x1="8.8019" y1="554.9589" x2="10.3421" y2="558.8094" gradientTransform="matrix(0.9716 0.237 0.237 -0.9716 -51.1331 735.3975)">
				<stop  offset="2.900000e-07" style="stop-color:#FFEA8B"/>
				<stop  offset="0.2582" style="stop-color:#F1DE86"/>
				<stop  offset="0.6744" style="stop-color:#E2D180"/>
				<stop  offset="1" style="stop-color:#DCCC7E"/>
			</linearGradient>
			<path fill="url(#SVGID_00000116234600481928824580000001109655918406392502_)" d="M91.8,197.2c-0.6,0-1.2,0-1.7,0
				c-0.5,0-1.1,0.1-1.6,0.3c0,0,0,0,0,0c-0.5-0.2-0.9-0.5-1.3-0.9c0.6-0.4,1.3-0.5,2-0.6c1.3-0.2,2.6-0.2,4,0
				c0.2,0.5,0.1,0.9-0.5,1.3C92.4,197.2,92.1,197.2,91.8,197.2z"/>
			
				<linearGradient id="SVGID_00000134248531421608025630000007781712876035234989_" gradientUnits="userSpaceOnUse" x1="9.5917" y1="554.6429" x2="11.1319" y2="558.4934" gradientTransform="matrix(0.9716 0.237 0.237 -0.9716 -51.1331 735.3975)">
				<stop  offset="2.900000e-07" style="stop-color:#FFEA8B"/>
				<stop  offset="0.2582" style="stop-color:#F1DE86"/>
				<stop  offset="0.6744" style="stop-color:#E2D180"/>
				<stop  offset="1" style="stop-color:#DCCC7E"/>
			</linearGradient>
			<path fill="url(#SVGID_00000134248531421608025630000007781712876035234989_)" d="M90.1,197.6c0.5,0,1.1,0,1.6,0c0,0,0.1,0,0.1,0
				c-0.9,0.3-1.9,0.4-2.8,0.1C89.4,197.6,89.8,197.6,90.1,197.6z"/>
			
				<linearGradient id="SVGID_00000057113386696474769090000004954358963871943859_" gradientUnits="userSpaceOnUse" x1="7.3132" y1="555.5544" x2="8.8534" y2="559.405" gradientTransform="matrix(0.9716 0.237 0.237 -0.9716 -51.1331 735.3975)">
				<stop  offset="2.900000e-07" style="stop-color:#FFEA8B"/>
				<stop  offset="0.2582" style="stop-color:#F1DE86"/>
				<stop  offset="0.6744" style="stop-color:#E2D180"/>
				<stop  offset="1" style="stop-color:#DCCC7E"/>
			</linearGradient>
			<path fill="url(#SVGID_00000057113386696474769090000004954358963871943859_)" d="M86.8,196.2c-0.4-0.4-0.7-0.9-0.9-1.5
				c0.5-0.2,0.9-0.5,1.4-0.7c0.5-0.2,1-0.3,1.5-0.3c0.6-0.1,1.2,0,1.9,0c0.9,0.5,1.7,1.1,2.2,1.7c-0.6,0-1.3-0.1-1.9-0.1
				C89.5,195.3,88,195.4,86.8,196.2z"/>
			<path fill="#FFFFFF" d="M86,193.2c-0.1,2,1.5,4.3,4,4.5C87.8,196.8,86.6,194.9,86,193.2z"/>
			<path fill="#FFFFFF" d="M93.4,196.3c0.4-0.4,1.1-1.1-1.3-2.5C93.7,195,93.8,195.4,93.4,196.3z"/>
		</g>
		<g>
			<path fill="#17202D" d="M412.9,182.9c-1,0.3-3-2.2,2.7-5c5.4-2.6,6.3,0.3,5.6,1C421,179.1,412.9,182.9,412.9,182.9z"/>
			
				<linearGradient id="SVGID_00000008146187943125791220000011942438611274086528_" gradientUnits="userSpaceOnUse" x1="361.2212" y1="698.2532" x2="362.2014" y2="704.6014" gradientTransform="matrix(0.8613 -0.5081 -0.5081 -0.8613 461.9547 969.2981)">
				<stop  offset="2.900000e-07" style="stop-color:#F7EAC9"/>
				<stop  offset="0.2107" style="stop-color:#F0DCAD"/>
				<stop  offset="0.6624" style="stop-color:#DFB967"/>
				<stop  offset="1" style="stop-color:#D19D2E"/>
			</linearGradient>
			<path fill="url(#SVGID_00000008146187943125791220000011942438611274086528_)" d="M412.4,182.6c4,3.5,8.9,1,8.8-3.9
				C421.1,175.4,410.4,180.9,412.4,182.6z"/>
			<path fill="#32374C" d="M421.2,178.7c0,1.1-0.2,2.1-0.6,2.9c0.3-0.7,0.5-1.6,0.5-2.5c-0.1-2.7-7.4,0.5-8.8,2.7
				C412.9,179.7,421.1,175.8,421.2,178.7z"/>
			
				<linearGradient id="SVGID_00000181767756037629511730000004173062380391613105_" gradientUnits="userSpaceOnUse" x1="357.6292" y1="699.9076" x2="359.1696" y2="703.7585" gradientTransform="matrix(0.8613 -0.5081 -0.5081 -0.8613 461.9547 969.2981)">
				<stop  offset="2.900000e-07" style="stop-color:#FFEA8B"/>
				<stop  offset="0.2582" style="stop-color:#F1DE86"/>
				<stop  offset="0.6744" style="stop-color:#E2D180"/>
				<stop  offset="1" style="stop-color:#DCCC7E"/>
			</linearGradient>
			<path fill="url(#SVGID_00000181767756037629511730000004173062380391613105_)" d="M414,181.8c-0.2,0.5-0.4,1-0.5,1.5
				c-0.3-0.2-0.6-0.4-0.9-0.7c-0.7-0.6,0.7-1.7,2.6-2.5c-0.1,0.1-0.1,0.2-0.2,0.2C414.6,180.8,414.3,181.3,414,181.8z"/>
			
				<linearGradient id="SVGID_00000055678468299457753910000002739813813579313062_" gradientUnits="userSpaceOnUse" x1="361.9613" y1="698.1749" x2="363.5017" y2="702.0259" gradientTransform="matrix(0.8613 -0.5081 -0.5081 -0.8613 461.9547 969.2981)">
				<stop  offset="2.900000e-07" style="stop-color:#FFEA8B"/>
				<stop  offset="0.2582" style="stop-color:#F1DE86"/>
				<stop  offset="0.6744" style="stop-color:#E2D180"/>
				<stop  offset="1" style="stop-color:#DCCC7E"/>
			</linearGradient>
			<path fill="url(#SVGID_00000055678468299457753910000002739813813579313062_)" d="M420.2,181.3c-0.4,0.4-0.8,0.8-1.2,1.2
				c-0.4,0.4-0.7,0.8-0.9,1.3c0,0,0,0,0,0c-0.5,0.2-1,0.3-1.6,0.3c0.2-0.7,0.6-1.3,1-1.9c0.8-1,1.8-2,2.8-2.8
				c0.5,0.2,0.7,0.6,0.6,1.3C420.6,180.8,420.4,181.1,420.2,181.3z"/>
			
				<linearGradient id="SVGID_00000147183245627190650310000012481717481349047213_" gradientUnits="userSpaceOnUse" x1="362.7513" y1="697.8589" x2="364.2917" y2="701.71" gradientTransform="matrix(0.8613 -0.5081 -0.5081 -0.8613 461.9547 969.2981)">
				<stop  offset="2.900000e-07" style="stop-color:#FFEA8B"/>
				<stop  offset="0.2582" style="stop-color:#F1DE86"/>
				<stop  offset="0.6744" style="stop-color:#E2D180"/>
				<stop  offset="1" style="stop-color:#DCCC7E"/>
			</linearGradient>
			<path fill="url(#SVGID_00000147183245627190650310000012481717481349047213_)" d="M419.3,182.7c0.4-0.4,0.8-0.8,1.2-1.2
				c0,0,0.1,0,0.1-0.1c-0.4,0.9-1.1,1.6-1.9,2C418.8,183.2,419,182.9,419.3,182.7z"/>
			
				<linearGradient id="SVGID_00000021083487040659281480000000974767714114453936_" gradientUnits="userSpaceOnUse" x1="360.4725" y1="698.7704" x2="362.0128" y2="702.6213" gradientTransform="matrix(0.8613 -0.5081 -0.5081 -0.8613 461.9547 969.2981)">
				<stop  offset="2.900000e-07" style="stop-color:#FFEA8B"/>
				<stop  offset="0.2582" style="stop-color:#F1DE86"/>
				<stop  offset="0.6744" style="stop-color:#E2D180"/>
				<stop  offset="1" style="stop-color:#DCCC7E"/>
			</linearGradient>
			<path fill="url(#SVGID_00000021083487040659281480000000974767714114453936_)" d="M415.9,184c-0.6-0.1-1.1-0.2-1.7-0.5
				c0.2-0.5,0.3-1,0.5-1.5c0.2-0.5,0.5-0.9,0.9-1.3c0.4-0.5,0.9-0.9,1.3-1.3c1-0.3,2-0.4,2.7-0.3c-0.5,0.4-1,0.8-1.4,1.3
				C417.3,181.5,416.2,182.6,415.9,184z"/>
			<path fill="#FFFFFF" d="M413.3,182.5c1.3,1.6,4.1,2,6,0.4C417.1,183.8,414.9,183.3,413.3,182.5z"/>
			<path fill="#FFFFFF" d="M420.8,179.5c0-0.6,0-1.6-2.7-0.9C420,178.4,420.4,178.6,420.8,179.5z"/>
		</g>
	</g>
	<g>
		<g>
			<path fill="#32374C" d="M147.8,173.1c-0.2,5.9,15.2,12.5,23.4,11.1c7-1.1,1.9-9.5,1.9-9.5L147.8,173.1z"/>
			<path fill="#17202D" d="M149.9,170.3c-2.6,0-5.7,7.4,9.9,10.2c14.8,2.6,14.8-4.9,12.8-6.2C171.9,173.7,149.9,170.3,149.9,170.3z"
				/>
			
				<linearGradient id="SVGID_00000033342616851645284960000014747070623094807435_" gradientUnits="userSpaceOnUse" x1="138.9606" y1="183.535" x2="141.4015" y2="199.3424" gradientTransform="matrix(0.9673 0.2536 -0.2536 0.9673 74.0323 -49.7478)">
				<stop  offset="2.900000e-07" style="stop-color:#F7EAC9"/>
				<stop  offset="0.2107" style="stop-color:#F0DCAD"/>
				<stop  offset="0.6624" style="stop-color:#DFB967"/>
				<stop  offset="1" style="stop-color:#D19D2E"/>
			</linearGradient>
			<path fill="url(#SVGID_00000033342616851645284960000014747070623094807435_)" d="M149,171.2c7.1-11.1,20.8-8.4,23.8,3.3
				C174.8,182.4,145.5,176.7,149,171.2z"/>
			<path fill="#32374C" d="M172.8,174.5c-0.7-2.7-1.9-4.8-3.5-6.5c1.2,1.5,2.2,3.5,2.8,5.7c1.7,6.6-18.2,3.8-23-0.5
				C152.1,177.9,174.6,181.5,172.8,174.5z"/>
			
				<linearGradient id="SVGID_00000054262818501652245300000002479892705627276980_" gradientUnits="userSpaceOnUse" x1="130.0165" y1="187.6549" x2="133.8522" y2="197.2439" gradientTransform="matrix(0.9673 0.2536 -0.2536 0.9673 74.0323 -49.7478)">
				<stop  offset="2.900000e-07" style="stop-color:#FFEA8B"/>
				<stop  offset="0.2582" style="stop-color:#F1DE86"/>
				<stop  offset="0.6744" style="stop-color:#E2D180"/>
				<stop  offset="1" style="stop-color:#DCCC7E"/>
			</linearGradient>
			<path fill="url(#SVGID_00000054262818501652245300000002479892705627276980_)" d="M153.5,172.1c-0.9-1-1.5-2.1-2.3-3.2
				c-0.6,0.7-1.2,1.4-1.8,2.2c-1.4,2,2.9,3.6,8,4.1c-0.2-0.1-0.5-0.3-0.7-0.4C155.6,174.1,154.5,173.2,153.5,172.1z"/>
			
				<linearGradient id="SVGID_00000096745246048114495650000007222506625996346803_" gradientUnits="userSpaceOnUse" x1="140.8034" y1="183.3401" x2="144.6391" y2="192.9291" gradientTransform="matrix(0.9673 0.2536 -0.2536 0.9673 74.0323 -49.7478)">
				<stop  offset="2.900000e-07" style="stop-color:#FFEA8B"/>
				<stop  offset="0.2582" style="stop-color:#F1DE86"/>
				<stop  offset="0.6744" style="stop-color:#E2D180"/>
				<stop  offset="1" style="stop-color:#DCCC7E"/>
			</linearGradient>
			<path fill="url(#SVGID_00000096745246048114495650000007222506625996346803_)" d="M168.5,169.2c-1.3-0.7-2.5-1.4-3.7-2.1
				c-1.1-0.7-2.2-1.4-3.1-2.4c0,0,0,0,0,0c-1.3-0.1-2.6,0-3.9,0.4c0.9,1.5,2.3,2.8,3.7,3.8c2.7,2,5.6,3.5,8.7,4.8
				c1-0.8,1.3-2,0.5-3.4C169.9,169.9,169.2,169.5,168.5,169.2z"/>
			
				<linearGradient id="SVGID_00000000194267832446617990000000209120500673213881_" gradientUnits="userSpaceOnUse" x1="142.7705" y1="182.5533" x2="146.6061" y2="192.1423" gradientTransform="matrix(0.9673 0.2536 -0.2536 0.9673 74.0323 -49.7478)">
				<stop  offset="2.900000e-07" style="stop-color:#FFEA8B"/>
				<stop  offset="0.2582" style="stop-color:#F1DE86"/>
				<stop  offset="0.6744" style="stop-color:#E2D180"/>
				<stop  offset="1" style="stop-color:#DCCC7E"/>
			</linearGradient>
			<path fill="url(#SVGID_00000000194267832446617990000000209120500673213881_)" d="M165.4,166.3c1.2,0.7,2.4,1.4,3.6,2
				c0.1,0,0.2,0.1,0.2,0.1c-1.7-1.8-3.7-3-5.9-3.5C164,165.4,164.7,165.9,165.4,166.3z"/>
			
				<linearGradient id="SVGID_00000108993509517934745070000005096605453098768800_" gradientUnits="userSpaceOnUse" x1="137.0963" y1="184.823" x2="140.9319" y2="194.412" gradientTransform="matrix(0.9673 0.2536 -0.2536 0.9673 74.0323 -49.7478)">
				<stop  offset="2.900000e-07" style="stop-color:#FFEA8B"/>
				<stop  offset="0.2582" style="stop-color:#F1DE86"/>
				<stop  offset="0.6744" style="stop-color:#E2D180"/>
				<stop  offset="1" style="stop-color:#DCCC7E"/>
			</linearGradient>
			<path fill="url(#SVGID_00000108993509517934745070000005096605453098768800_)" d="M156.4,165.4c-1.3,0.5-2.6,1.3-3.8,2.2
				c0.7,1.1,1.4,2.2,2.3,3.2c0.9,0.9,1.9,1.8,3,2.5c1.3,0.9,2.7,1.6,4.1,2.2c2.6,0,5.1-0.4,6.8-1.1c-1.5-0.7-2.9-1.4-4.3-2.1
				C161.4,170.6,158.2,168.5,156.4,165.4z"/>
			<path fill="#FFFFFF" d="M151.2,170.9c2.1-4.6,8.4-7.6,14.1-5.1C159.5,165.3,154.6,168,151.2,170.9z"/>
			<path fill="#FFFFFF" d="M171.2,173c0.4,1.3,1.1,3.8-5.7,4C170.2,176.1,170.9,175.4,171.2,173z"/>
		</g>
		<g>
			<path fill="#32374C" d="M335.3,169.3c1.4,5.7,18.9,9.7,26.2,5.6c5.8-3.2,1-9.8-1.5-11.1L335.3,169.3z"/>
			<path fill="#17202D" d="M336.6,166c-2.5,0.8-3.4,8.7,12.4,7.1c15-1.6,12.9-8.8,10.6-9.5C358.6,163.2,336.6,166,336.6,166z"/>
			
				<linearGradient id="SVGID_00000003070859362190166650000010742466565796097963_" gradientUnits="userSpaceOnUse" x1="322.7238" y1="136.0374" x2="325.1647" y2="151.8448" gradientTransform="matrix(0.9997 -2.492273e-02 2.492273e-02 0.9997 20.0622 27.7474)">
				<stop  offset="2.900000e-07" style="stop-color:#F7EAC9"/>
				<stop  offset="0.2107" style="stop-color:#F0DCAD"/>
				<stop  offset="0.6624" style="stop-color:#DFB967"/>
				<stop  offset="1" style="stop-color:#D19D2E"/>
			</linearGradient>
			<path fill="url(#SVGID_00000003070859362190166650000010742466565796097963_)" d="M336,167.1c3.7-12.6,17.6-13.8,23.7-3.4
				C363.9,170.8,334.1,173.4,336,167.1z"/>
			<path fill="#32374C" d="M359.7,163.7c-1.4-2.4-3.2-4.1-5.2-5.3c1.6,1.1,3.1,2.7,4.3,4.7c3.4,5.9-16.4,8.7-22.3,5.9
				C340.7,172.7,363.4,169.9,359.7,163.7z"/>
			
				<linearGradient id="SVGID_00000098924259143976174690000002176612234685970106_" gradientUnits="userSpaceOnUse" x1="313.7797" y1="140.1569" x2="317.6154" y2="149.7461" gradientTransform="matrix(0.9997 -2.492273e-02 2.492273e-02 0.9997 20.0622 27.7474)">
				<stop  offset="2.900000e-07" style="stop-color:#FFEA8B"/>
				<stop  offset="0.2582" style="stop-color:#F1DE86"/>
				<stop  offset="0.6744" style="stop-color:#E2D180"/>
				<stop  offset="1" style="stop-color:#DCCC7E"/>
			</linearGradient>
			<path fill="url(#SVGID_00000098924259143976174690000002176612234685970106_)" d="M340.5,166.8c-1.1-0.7-2.1-1.6-3.1-2.4
				c-0.4,0.8-0.8,1.7-1.1,2.6c-0.8,2.3,3.8,2.6,8.8,1.7c-0.3-0.1-0.5-0.1-0.8-0.2C343.1,168.1,341.8,167.5,340.5,166.8z"/>
			
				<linearGradient id="SVGID_00000173869142732965507410000001506571743810533020_" gradientUnits="userSpaceOnUse" x1="324.5668" y1="135.8424" x2="328.4024" y2="145.4316" gradientTransform="matrix(0.9997 -2.492273e-02 2.492273e-02 0.9997 20.0622 27.7474)">
				<stop  offset="2.900000e-07" style="stop-color:#FFEA8B"/>
				<stop  offset="0.2582" style="stop-color:#F1DE86"/>
				<stop  offset="0.6744" style="stop-color:#E2D180"/>
				<stop  offset="1" style="stop-color:#DCCC7E"/>
			</linearGradient>
			<path fill="url(#SVGID_00000173869142732965507410000001506571743810533020_)" d="M354.1,159.8c-1.4-0.3-2.8-0.6-4.2-1
				c-1.3-0.3-2.5-0.8-3.7-1.5c0,0,0,0,0,0c-1.3,0.3-2.5,0.7-3.7,1.4c1.3,1.2,3,2,4.6,2.6c3.1,1.1,6.4,1.8,9.6,2.2
				c0.7-1.1,0.7-2.2-0.5-3.4C355.6,160,354.9,159.9,354.1,159.8z"/>
			
				<linearGradient id="SVGID_00000016033167499959058130000006058750783456334771_" gradientUnits="userSpaceOnUse" x1="326.5339" y1="135.0556" x2="330.3696" y2="144.6449" gradientTransform="matrix(0.9997 -2.492273e-02 2.492273e-02 0.9997 20.0622 27.7474)">
				<stop  offset="2.900000e-07" style="stop-color:#FFEA8B"/>
				<stop  offset="0.2582" style="stop-color:#F1DE86"/>
				<stop  offset="0.6744" style="stop-color:#E2D180"/>
				<stop  offset="1" style="stop-color:#DCCC7E"/>
			</linearGradient>
			<path fill="url(#SVGID_00000016033167499959058130000006058750783456334771_)" d="M350.4,157.9c1.3,0.3,2.7,0.6,4,0.9
				c0.1,0,0.2,0,0.3,0c-2.1-1.3-4.4-1.9-6.7-1.8C348.7,157.4,349.6,157.7,350.4,157.9z"/>
			
				<linearGradient id="SVGID_00000079483054161191864740000007356139411395999128_" gradientUnits="userSpaceOnUse" x1="320.8595" y1="137.3252" x2="324.6952" y2="146.9144" gradientTransform="matrix(0.9997 -2.492273e-02 2.492273e-02 0.9997 20.0622 27.7474)">
				<stop  offset="2.900000e-07" style="stop-color:#FFEA8B"/>
				<stop  offset="0.2582" style="stop-color:#F1DE86"/>
				<stop  offset="0.6744" style="stop-color:#E2D180"/>
				<stop  offset="1" style="stop-color:#DCCC7E"/>
			</linearGradient>
			<path fill="url(#SVGID_00000079483054161191864740000007356139411395999128_)" d="M341.5,159.5c-1.1,0.9-2.1,1.9-3,3.2
				c1,0.8,1.9,1.8,3.1,2.4c1.1,0.7,2.3,1.2,3.5,1.6c1.5,0.5,3,0.8,4.5,1c2.5-0.8,4.8-1.8,6.2-2.9c-1.6-0.2-3.2-0.5-4.7-0.9
				C347.7,163.1,344,162,341.5,159.5z"/>
			<path fill="#FFFFFF" d="M338,166.2c0.7-5,5.9-9.6,12.1-8.8C344.4,158.5,340.4,162.5,338,166.2z"/>
			<path fill="#FFFFFF" d="M357.8,162.7c0.7,1.2,2.1,3.3-4.4,5.5C357.6,166,358.2,165.1,357.8,162.7z"/>
		</g>
		<g>
			<path fill="#32374C" d="M384.9,117.3c0.1,3.6,11,7.4,16,6.1c4.8-1.2-0.4-6-0.4-6L384.9,117.3z"/>
			<path fill="#17202D" d="M386.1,115.5c-1.6,0.1-3.3,4.8,6.5,6c9.2,1.1,9-3.5,7.7-4.3C399.7,116.9,386.1,115.5,386.1,115.5z"/>
			
				<linearGradient id="SVGID_00000026848151535685363160000014779998951059115965_" gradientUnits="userSpaceOnUse" x1="382.9005" y1="105.169" x2="384.4082" y2="114.9336" gradientTransform="matrix(0.9793 0.2024 -0.2024 0.9793 39.5861 -69.882)">
				<stop  offset="2.900000e-07" style="stop-color:#F7EAC9"/>
				<stop  offset="0.2107" style="stop-color:#F0DCAD"/>
				<stop  offset="0.6624" style="stop-color:#DFB967"/>
				<stop  offset="1" style="stop-color:#D19D2E"/>
			</linearGradient>
			<path fill="url(#SVGID_00000026848151535685363160000014779998951059115965_)" d="M385.6,116.1c4-7.1,12.6-5.8,14.8,1.3
				C401.9,122.2,383.6,119.6,385.6,116.1z"/>
			<path fill="#32374C" d="M400.3,117.3c-0.5-1.6-1.3-2.9-2.4-3.9c0.8,0.9,1.5,2.1,1.9,3.4c1.3,4-11.1,2.9-14.2,0.4
				C387.7,120.1,401.7,121.6,400.3,117.3z"/>
			
				<linearGradient id="SVGID_00000160153141222216160660000017914895515748662718_" gradientUnits="userSpaceOnUse" x1="377.3755" y1="107.714" x2="379.7448" y2="113.6373" gradientTransform="matrix(0.9793 0.2024 -0.2024 0.9793 39.5861 -69.882)">
				<stop  offset="2.900000e-07" style="stop-color:#FFEA8B"/>
				<stop  offset="0.2582" style="stop-color:#F1DE86"/>
				<stop  offset="0.6744" style="stop-color:#E2D180"/>
				<stop  offset="1" style="stop-color:#DCCC7E"/>
			</linearGradient>
			<path fill="url(#SVGID_00000160153141222216160660000017914895515748662718_)" d="M388.4,116.5c-0.6-0.6-1-1.2-1.5-1.9
				c-0.4,0.4-0.7,0.9-1,1.4c-0.8,1.3,1.9,2.1,5.1,2.3c-0.1-0.1-0.3-0.2-0.4-0.3C389.7,117.6,389,117.1,388.4,116.5z"/>
			
				<linearGradient id="SVGID_00000182490258827061593940000002366596705974635409_" gradientUnits="userSpaceOnUse" x1="384.0388" y1="105.0486" x2="386.4081" y2="110.9719" gradientTransform="matrix(0.9793 0.2024 -0.2024 0.9793 39.5861 -69.882)">
				<stop  offset="2.900000e-07" style="stop-color:#FFEA8B"/>
				<stop  offset="0.2582" style="stop-color:#F1DE86"/>
				<stop  offset="0.6744" style="stop-color:#E2D180"/>
				<stop  offset="1" style="stop-color:#DCCC7E"/>
			</linearGradient>
			<path fill="url(#SVGID_00000182490258827061593940000002366596705974635409_)" d="M397.5,114.2c-0.8-0.4-1.6-0.8-2.4-1.2
				c-0.7-0.4-1.4-0.8-2-1.4c0,0,0,0,0,0c-0.8,0-1.6,0.1-2.4,0.4c0.6,0.9,1.5,1.6,2.4,2.2c1.7,1.1,3.6,2,5.5,2.7
				c0.6-0.5,0.7-1.2,0.2-2.1C398.4,114.6,398,114.4,397.5,114.2z"/>
			
				<linearGradient id="SVGID_00000097499533814213684470000010138104800257564825_" gradientUnits="userSpaceOnUse" x1="385.2539" y1="104.5625" x2="387.6232" y2="110.4858" gradientTransform="matrix(0.9793 0.2024 -0.2024 0.9793 39.5861 -69.882)">
				<stop  offset="2.900000e-07" style="stop-color:#FFEA8B"/>
				<stop  offset="0.2582" style="stop-color:#F1DE86"/>
				<stop  offset="0.6744" style="stop-color:#E2D180"/>
				<stop  offset="1" style="stop-color:#DCCC7E"/>
			</linearGradient>
			<path fill="url(#SVGID_00000097499533814213684470000010138104800257564825_)" d="M395.5,112.5c0.7,0.4,1.5,0.8,2.3,1.1
				c0.1,0,0.1,0,0.2,0.1c-1.1-1.1-2.4-1.7-3.8-2C394.6,112,395.1,112.3,395.5,112.5z"/>
			
				<linearGradient id="SVGID_00000044160551972470015520000004695383672542091148_" gradientUnits="userSpaceOnUse" x1="381.7488" y1="105.9646" x2="384.1181" y2="111.8879" gradientTransform="matrix(0.9793 0.2024 -0.2024 0.9793 39.5861 -69.882)">
				<stop  offset="2.900000e-07" style="stop-color:#FFEA8B"/>
				<stop  offset="0.2582" style="stop-color:#F1DE86"/>
				<stop  offset="0.6744" style="stop-color:#E2D180"/>
				<stop  offset="1" style="stop-color:#DCCC7E"/>
			</linearGradient>
			<path fill="url(#SVGID_00000044160551972470015520000004695383672542091148_)" d="M389.9,112.3c-0.8,0.4-1.5,0.9-2.2,1.5
				c0.5,0.6,0.9,1.3,1.5,1.9c0.6,0.6,1.2,1,1.9,1.4c0.8,0.5,1.7,0.9,2.6,1.2c1.6-0.1,3.1-0.4,4.1-0.9c-0.9-0.4-1.8-0.7-2.7-1.2
				C393.2,115.3,391.1,114.1,389.9,112.3z"/>
			<path fill="#FFFFFF" d="M386.9,115.8c1.2-2.9,4.9-5,8.5-3.6C391.9,112.1,388.9,113.9,386.9,115.8z"/>
			<path fill="#FFFFFF" d="M399.3,116.5c0.3,0.8,0.8,2.3-3.4,2.7C398.8,118.4,399.2,117.9,399.3,116.5z"/>
		</g>
		<g>
			<path fill="#32374C" d="M97.3,133c0.5,3.8,10.9,6.3,16,4.6c4.3-1.5,0.2-6.2,0.2-6.2L97.3,133z"/>
			<path fill="#17202D" d="M98.3,131c-1.6,0.3-2.8,5.3,7.4,5.4c9.7,0.1,8.9-4.6,7.4-5.3C112.6,130.8,98.3,131,98.3,131z"/>
			
				<linearGradient id="SVGID_00000093166718104271599730000017285695296418545281_" gradientUnits="userSpaceOnUse" x1="79.1062" y1="209.8181" x2="80.6735" y2="219.9687" gradientTransform="matrix(0.9959 9.017301e-02 -9.017301e-02 0.9959 45.263 -90.9834)">
				<stop  offset="2.900000e-07" style="stop-color:#F7EAC9"/>
				<stop  offset="0.2107" style="stop-color:#F0DCAD"/>
				<stop  offset="0.6624" style="stop-color:#DFB967"/>
				<stop  offset="1" style="stop-color:#D19D2E"/>
			</linearGradient>
			<path fill="url(#SVGID_00000093166718104271599730000017285695296418545281_)" d="M97.8,131.7c3.3-7.8,12.3-7.5,15.4-0.4
				C115.4,136,96.2,135.5,97.8,131.7z"/>
			<path fill="#32374C" d="M113.2,131.2c-0.7-1.6-1.7-2.9-2.9-3.8c1,0.8,1.8,2,2.4,3.3c1.8,4-11.1,4.3-14.6,2.1
				C100.5,135.6,115.1,135.5,113.2,131.2z"/>
			
				<linearGradient id="SVGID_00000122704721861052713090000012253269231424541319_" gradientUnits="userSpaceOnUse" x1="73.3627" y1="212.4633" x2="75.8258" y2="218.621" gradientTransform="matrix(0.9959 9.017301e-02 -9.017301e-02 0.9959 45.263 -90.9834)">
				<stop  offset="2.900000e-07" style="stop-color:#FFEA8B"/>
				<stop  offset="0.2582" style="stop-color:#F1DE86"/>
				<stop  offset="0.6744" style="stop-color:#E2D180"/>
				<stop  offset="1" style="stop-color:#DCCC7E"/>
			</linearGradient>
			<path fill="url(#SVGID_00000122704721861052713090000012253269231424541319_)" d="M100.8,131.7c-0.7-0.5-1.2-1.2-1.8-1.8
				c-0.3,0.5-0.6,1-0.9,1.6c-0.7,1.4,2.2,1.9,5.5,1.8c-0.2-0.1-0.3-0.1-0.5-0.2C102.3,132.8,101.5,132.3,100.8,131.7z"/>
			
				<linearGradient id="SVGID_00000086662429931868820130000004112754223149609389_" gradientUnits="userSpaceOnUse" x1="80.2896" y1="209.6928" x2="82.7527" y2="215.8506" gradientTransform="matrix(0.9959 9.017301e-02 -9.017301e-02 0.9959 45.263 -90.9834)">
				<stop  offset="2.900000e-07" style="stop-color:#FFEA8B"/>
				<stop  offset="0.2582" style="stop-color:#F1DE86"/>
				<stop  offset="0.6744" style="stop-color:#E2D180"/>
				<stop  offset="1" style="stop-color:#DCCC7E"/>
			</linearGradient>
			<path fill="url(#SVGID_00000086662429931868820130000004112754223149609389_)" d="M110,128.3c-0.9-0.3-1.7-0.6-2.6-0.9
				c-0.8-0.3-1.6-0.7-2.2-1.2c0,0,0,0,0,0c-0.8,0.1-1.7,0.3-2.5,0.6c0.8,0.9,1.7,1.5,2.8,2c1.9,1,3.9,1.6,6,2.1
				c0.5-0.6,0.6-1.4-0.1-2.2C110.9,128.6,110.4,128.4,110,128.3z"/>
			
				<linearGradient id="SVGID_00000095311499994172459850000009429948297724845740_" gradientUnits="userSpaceOnUse" x1="81.5528" y1="209.1876" x2="84.0159" y2="215.3454" gradientTransform="matrix(0.9959 9.017301e-02 -9.017301e-02 0.9959 45.263 -90.9834)">
				<stop  offset="2.900000e-07" style="stop-color:#FFEA8B"/>
				<stop  offset="0.2582" style="stop-color:#F1DE86"/>
				<stop  offset="0.6744" style="stop-color:#E2D180"/>
				<stop  offset="1" style="stop-color:#DCCC7E"/>
			</linearGradient>
			<path fill="url(#SVGID_00000095311499994172459850000009429948297724845740_)" d="M107.7,126.8c0.8,0.3,1.7,0.6,2.5,0.9
				c0.1,0,0.1,0,0.2,0.1c-1.3-1-2.7-1.5-4.1-1.6C106.7,126.4,107.2,126.6,107.7,126.8z"/>
			
				<linearGradient id="SVGID_00000054953799784016105630000008378837293794868661_" gradientUnits="userSpaceOnUse" x1="77.909" y1="210.645" x2="80.3721" y2="216.8027" gradientTransform="matrix(0.9959 9.017301e-02 -9.017301e-02 0.9959 45.263 -90.9834)">
				<stop  offset="2.900000e-07" style="stop-color:#FFEA8B"/>
				<stop  offset="0.2582" style="stop-color:#F1DE86"/>
				<stop  offset="0.6744" style="stop-color:#E2D180"/>
				<stop  offset="1" style="stop-color:#DCCC7E"/>
			</linearGradient>
			<path fill="url(#SVGID_00000054953799784016105630000008378837293794868661_)" d="M101.9,127.2c-0.8,0.5-1.5,1.1-2.1,1.8
				c0.6,0.6,1.1,1.3,1.8,1.8c0.7,0.5,1.4,0.9,2.1,1.3c0.9,0.4,1.9,0.7,2.8,0.9c1.6-0.3,3.2-0.8,4.2-1.4c-1-0.3-2-0.6-2.9-0.9
				C105.6,129.9,103.4,129,101.9,127.2z"/>
			<path fill="#FFFFFF" d="M99.2,131.2c0.8-3.1,4.5-5.7,8.4-4.7C103.8,126.8,101,129,99.2,131.2z"/>
			<path fill="#008BFF" d="M112.1,130.4c0.4,0.8,1.1,2.3-3.2,3.2C111.7,132.5,112.2,132,112.1,130.4z"/>
		</g>
	</g>
	<g>
		<g>
			<path fill="#172441" d="M305.4,300.8c-0.3-1.6-1.7-2.7-2.8-3.8c-1.3-1.3-2.3-2.7-2.3-4.6c-0.1-1.4,0.2-2.9-0.3-4.2
				c-0.2-0.7-0.8-1.3-1.5-1.7c0-0.1,0-0.1,0-0.2c-0.1-0.9-1.8-1.4-2.5-1.9c-0.9-0.6-1.6-1.5-2.5-2.2c0.2-0.2,0.3-0.5,0.3-0.7
				c-0.3-4.6-1.6-9.1-3.9-13.2c-1.1-2-2.5-3.8-4.3-5.3c-1.6-1.3-3.8-2.5-5.9-2.4c0-0.1,0-0.2,0-0.2c0.1-1.9,0.8-3.6,2.4-4.8
				c1.7-1.3,3.6-2.2,5.4-3.3c3-1.9,7.1-4.8,7.3-8.7c0.4-1,0.5-2,0.2-3c-0.5-1.4-2.2-2.4-3.5-2.8c-0.1,0-0.2,0.1-0.3,0.2
				c-0.1,0-0.1,0-0.1,0.1c-1.4,1.8,0.2,4.7,2.2,5.3c0,0.1-0.1,0.2-0.1,0.3c0.1,2.3-1.7,4.1-3.4,5.4c-1.6,1.3-3.4,2.2-5.2,3.1
				c-2.7,1.4-5.2,3.1-6.5,5.6c-0.1,0.1-0.1,0.1-0.2,0.2c-0.7,1.3-0.9,2.6-1.3,4c-0.4,1.6-1.5,3-2.7,4.1c-2.4,2.2-4.9,4.3-7.5,6.3
				c-2.3,1.8-4.7,3.9-7.3,5.2c-1.3,0.7-2.7,1-4.2,1.3c-1.2,0.3-2.5,0.5-3.8,0.5c-0.1,0-0.2,0-0.3,0.1c-0.7-0.1-1.4-0.3-2.1-0.5
				c-0.9-0.2-1.8-0.2-2.7-0.3c-1.6-0.2-3.2-0.8-4.9-0.9c-1.2-0.1-2.9-0.3-4.3,0.2c0.4-0.9,0.3-2,0.1-2.9c-0.1-1.2-0.6-2.6-1.7-3.1
				c-0.3-0.7-1.7,0.1-1.6,0.8c0.3,1.1,0,2.5-0.4,3.6c-0.3,0.7-0.8,1.1-1.4,1.6c-0.4,0.4-0.8,0.8-1.3,1.1c-0.1-0.1-0.2-0.2-0.3-0.2
				c0.7-2.2,0.9-4.6,0.8-6.9c0-0.5-0.7-0.2-1.1,0.1c-0.2,0-0.7,0.3-0.8,0.4c-0.5,1.3-0.9,2.5-1.6,3.7c-0.4,0.6-0.9,1.1-1.4,1.7
				c-1.4,0-3,0.2-4.3,0.8c0,0,0,0,0-0.1c-0.4-0.5-0.7-0.9-1.2-1.3c-0.1-1.1-1-2.1-1.4-3.1c-0.4-1.2-0.1-2.4-0.1-3.6
				c0.1-0.2,0.1-0.4,0-0.7c0,0,0,0-0.1-0.1c0,0,0,0,0,0c-0.1-0.5-0.8,0-0.9,0.3c-0.1,0.2-0.2,0.4-0.2,0.6c-0.5,0.9-0.8,1.8-1,2.8
				c-0.2,1.1-0.5,2.5-0.3,3.6c-0.1,0-0.1,0.1-0.2,0.1c0-1.2-1.3-2.4-2.1-3.2c-0.9-0.8-2-1.8-3.2-2c-0.2-0.7-1.6,0.1-1.8,0.6
				c-1.2,3,1.5,7.1,4.1,8.4c0.1,0,0.1,0,0.2,0.1c-0.3,1.8-1.1,3.3-2.2,4.8c-1.1,1.4-2.1,2.7-3,4.3c-0.8,1.4-1.4,3.2-0.6,4.7
				c0.3,0.6,0.9,1.1,1.6,1.4c-0.4,0.7-0.6,1.6-0.5,2.4c0.2,1.3,1.4,2,2.5,2.4c2.1,0.7,4.5-0.3,6.6-0.8c2-0.5,4.1-1,6-1.8
				c1-0.4,2.6-1.1,3.5-2.2c0,1.4,0.8,2.9,1.5,4c1.1,1.9,2.5,3.7,3.8,5.4c1.3,1.7,2.7,3.4,4.2,5c1.2,1.3,2.8,2.4,4.7,2.5
				c-0.4,0.6-1.1,1.2-1.6,1.7c-0.8,0.7-1.6,1.4-2.3,2.2c-1.6,1.8-3.2,3.7-2.4,6.2c0.7,2.4,2.6,4.2,4,6.2c0.6,0.9,1,2,1.8,2.8
				c0.6,0.7,1.6,0.8,2.5,0.7c1.5,0,3.8-0.3,4.1-2.2c0.2-1.4-0.1-3.6-0.9-4.8c-1.1-1.8-3.3,1.2-4.5,1.1c-1.7-0.1-2.1-2.4-2.4-4
				c0.6-2,1.7-3.5,3.4-4.9c1.7-1.4,3.6-2.5,5.3-3.9c0.2-0.2,0.5-0.4,0.7-0.6c-0.6,3-0.7,6.1-0.7,9.2c0,1.6-0.1,3.2-0.1,4.8
				c0,1,0.7,1.4,1.5,1.6c2.3,0.7,5.5,0.4,7.1-1.5c1.5-1.8,1.6-5.1,0.1-6.9c-0.3-0.4-1.1-0.2-1.6,0.2c-0.4,0.1-0.7,0.3-1,0.6
				c-0.1,0.1-0.2,0.2-0.3,0.2c0-0.6,0-1.3,0-1.9c0-1.7,0-3.3-0.1-5c-0.1-1.2-0.4-4.9-2-5.1c0.1-0.3,0.2-0.7,0.3-1.1
				c0-0.2,0-0.5,0-0.7c2.5,0.9,5.5,0.7,8.1,0.5c1.7-0.1,3.3-0.2,4.9-0.5c1.5-0.3,2.9-0.8,4.3-1.5c2.9-1.3,6-2.6,8.7-4.3
				c1-0.6,2-1.4,3-2.2c0.7-0.5,1.6-1.3,1.8-2.2c1,0.4,1.8,1.1,2.8,1.4c-0.5,3.4-1.3,6.8-1.9,10.1c-0.2,1-0.3,2.1,0,3.1
				c0.3,1.1,1.1,2,2,2.7c0,0.1,0.1,0.2,0.3,0.2c0,0,0,0,0,0c0.1,0,0.3,0,0.4,0c2,0.1,3.9-1.4,5.1-2.8c0.1-0.2,0.2-0.4,0.2-0.6
				c0-0.1,0-0.3-0.1-0.4c-0.5-0.6-1.1-1-1.7-1.5c-0.7-0.7-0.9-1.5-0.9-2.5c0.1-2.2,1-4.5,1.9-6.4c0.7-1.6,1.7-3.8,0.9-5.6
				c-0.5-1.2-2-1.5-3.2-1.6c-0.1-0.5-0.1-0.9,0-1.4c0-0.1,0.1-0.3,0.1-0.4c0,0,0.1,0,0.1,0c0.3-0.1,0.6-0.1,0.9-0.1
				c1.5,0,3,0.2,4.5,0.5c-0.2,0.7-0.2,1.4-0.2,2.1c0,1.5,0.3,3,0.6,4.4c0.7,2.7,2.3,5.7,5.2,6.6c0.6,0.2,1.8-0.7,1.5-1.3
				c0.4-0.4,0.8-0.8,1.2-1.2c0.3-0.4,1.3-1.1,1.6-1.8C305.3,301.2,305.4,301,305.4,300.8z"/>
		</g>
		<path fill="#FFFFFF" d="M225.9,282.8c-1.2-1-3-0.1-3.4,1.2c-0.1,0.3-0.1,0.5-0.1,0.7c0,0.1,0,0.2,0.1,0.3c0,0.1,0.1,0.3,0.1,0.4
			c0.2,0.5,0.7,0.6,1.1,0.6c0.4,0.1,0.9,0,1.4-0.1c0.6-0.2,1.2-0.6,1.5-1.2C226.8,284.1,226.4,283.3,225.9,282.8z"/>
		<path fill="#FFFFFF" d="M218.7,282.4c0-0.1-0.1-0.2-0.2-0.3c-0.1-0.1-0.3-0.2-0.4-0.2c-0.3-0.1-0.7-0.1-1,0.2
			c-0.1,0.1-0.3,0.3-0.3,0.4c0,0-0.1,0.1-0.1,0.1c-0.2,0.3-0.2,0.7,0,1c0,0.2,0.1,0.5,0.4,0.6c0.6,0.3,1.4-0.1,1.6-0.7
			C218.9,283.2,219,282.7,218.7,282.4z"/>
	</g>
</g>
<g>
	
		<radialGradient id="SVGID_00000024720099710083386770000000013738959825073801_" cx="183.1799" cy="111.8036" r="107.6278" gradientUnits="userSpaceOnUse">
		<stop  offset="2.900000e-07" style="stop-color:#FFFFFF;stop-opacity:0.8"/>
		<stop  offset="0.2031" style="stop-color:#FFFF98;stop-opacity:0.4"/>
		<stop  offset="0.4023" style="stop-color:#C2C57C;stop-opacity:0.3"/>
		<stop  offset="0.8169" style="stop-color:#484F44;stop-opacity:9.188375e-02"/>
		<stop  offset="1" style="stop-color:#17202D;stop-opacity:0"/>
	</radialGradient>
	<path fill="url(#SVGID_00000024720099710083386770000000013738959825073801_)" d="M183.2,219c59.7,0,108-48.4,108-108
		c0-53.3-38.6-97.6-89.4-106.4c-42.2,11.5-81,31.1-114.7,57.1C79.5,76.4,75.1,93.2,75.1,111C75.1,170.7,123.5,219,183.2,219z"/>
</g>
</svg>
