<?xml version="1.0" encoding="utf-8"?>
<svg version="1.1" id="Слой_1" xmlns="http://www.w3.org/2000/svg" xmlns:xlink="http://www.w3.org/1999/xlink" x="0px" y="0px"
	 viewBox="0 0 500 500" style="enable-background:new 0 0 500 500;" xml:space="preserve">
<style type="text/css">
	.st0{fill:#051F3F;}
	.st1{fill:none;}
	.st2{fill:#FFFFFF;}
	.st3{fill:#051F3F;stroke:#FFFFFF;stroke-width:3;stroke-miterlimit:10;}
	.st4{fill:#FFFFFF;stroke:#FFFFFF;stroke-width:5;stroke-linecap:round;stroke-linejoin:round;stroke-miterlimit:10;}
	.st5{fill:none;stroke:#FFFFFF;stroke-width:5;stroke-linecap:round;stroke-linejoin:round;stroke-miterlimit:10;}
	.st6{fill:#051F3F;stroke:#051F3F;}
	.st7{fill:#FFFFFF;stroke:#051F3F;stroke-width:6;}
</style>
<circle class="st0" cx="250" cy="250" r="250"/>
<g>
	<g>
		<path class="st1" d="M82.1,223.8c0,0,0,0.1,0,0.1c0,0.3-0.1,0.6-0.3,1c0-0.1,0.1-0.1,0.2-0.2c0.1-0.2,0.2-0.5,0.2-0.7
			C82.2,224.1,82.2,224,82.1,223.8z"/>
		<path class="st1" d="M68.7,219.5c-0.2,0.4-0.4,0.9-0.4,1.4C68.3,220.4,68.4,219.9,68.7,219.5L68.7,219.5z"/>
		<path class="st2" d="M278.3,253.9c-0.3,0.5-0.7,1-1,1.5C277.6,254.9,278,254.4,278.3,253.9z"/>
		<path class="st2" d="M255.3,253.1c0.4,0.7,0.9,1.4,1.3,2.1C256.2,254.6,255.7,253.9,255.3,253.1L255.3,253.1z"/>
		<path class="st2" d="M152.1,137.7c1.6-2.2,3.3-4.3,5.2-6.5c-11.8,1.8-24,3.9-35.3,6.2c4.6-0.2,8.9-0.3,13-0.3
			C141,137,146.7,137.3,152.1,137.7z"/>
		<path class="st2" d="M319.6,136.9c-0.1-0.5,0.1-1,0.6-1.3c0.1-0.1,0.3-0.1,0.4-0.1c0.3,0,0.6,0.2,0.8,0.5
			c3.9,6.2,4.7,12.2,2.4,17.7c-4.2,10.2-18.5,18.4-42.7,24.3c0,0-0.1,0-0.2,0c-0.5,0-0.9-0.3-1-0.7c-0.2-0.5,0.1-1.1,0.6-1.1
			c13.4-5.4,23.8-10.3,30.7-16.2C319.1,153.4,321.7,146,319.6,136.9z M207.9,113.7c11.8-9.8,27.2-15.2,43.6-15.2
			c13.2,0,25.8,3.3,36.6,9.8c0.4,0.3,0.6,0.8,0.4,1.4c-0.1,0.4-0.5,0.6-0.9,0.6c-0.1,0-0.2,0-0.3,0c-11.7-3.4-23.9-5.3-35.3-5.3
			c-16.2,0-30.7,3.5-42.9,10.5c-0.2,0.1-0.3,0.1-0.5,0.1c-0.4,0-0.7-0.1-0.9-0.5C207.3,114.6,207.4,114,207.9,113.7z"/>
		<path class="st2" d="M370.3,239.6C370.3,239.6,370.3,239.6,370.3,239.6h-0.1C370.3,239.6,370.3,239.6,370.3,239.6z"/>
		<path class="st2" d="M279.7,251c-0.1,0.1-0.1,0.3-0.2,0.5C279.6,251.4,279.7,251.2,279.7,251z"/>
	</g>
	<g>
		<path class="st2" d="M243.1,272c-2.6,0-5.3-0.1-7.9-0.1c-3.2,0-6.5-0.1-9.5-0.2c-9.7-0.3-24.1-1.1-37.3-2.9
			c-16.8-2.3-28.5-7.2-32.4-11.9v100c0,50.6,41.4,92,92,92h0c50.6,0,92-41.4,92-92V252.6C334,270,280.7,272,243.1,272z"/>
	</g>
	<g>
		<path class="st6" d="M321,359.9c-1-2.2-3.5-3.2-5.4-4.3c-2.4-1.4-4.2-3-5-5.7c-0.6-2-0.8-4.1-2-5.9c-0.6-0.9-1.6-1.6-2.7-1.8
			c0-0.1,0-0.2,0-0.3c-0.5-1.3-3.1-1.3-4.3-1.7c-1.6-0.5-2.9-1.5-4.3-2.3c0.2-0.4,0.3-0.8,0.2-1.2c-2.2-6.4-5.7-12.3-10.4-17.2
			c-2.3-2.4-5-4.5-8-5.9c-2.7-1.3-6.3-2.1-9.2-1.2c0-0.1-0.1-0.2-0.1-0.3c-0.5-2.8-0.2-5.4,1.6-7.7c1.8-2.5,4.3-4.4,6.5-6.7
			c3.6-3.8,8.3-9.4,7.1-15.1c0.2-1.5,0-3.1-0.8-4.3c-1.2-1.9-3.9-2.6-6-2.6c-0.1,0-0.3,0.2-0.4,0.3c-0.1,0-0.1,0.1-0.1,0.1
			c-1.3,3.1,2,6.6,5.1,6.6c0,0.1,0,0.3,0,0.4c1,3.3-0.9,6.5-2.8,9c-1.8,2.4-4,4.4-6.1,6.4c-3.3,3-6.2,6.3-7.1,10.3
			c-0.1,0.1-0.1,0.2-0.2,0.3c-0.5,2-0.3,4.1-0.3,6.1c0,2.4-1,4.8-2.2,6.8c-2.5,4.1-5.3,7.9-8.2,11.7c-2.6,3.5-5.2,7.2-8.4,10.1
			c-1.6,1.5-3.5,2.5-5.4,3.4c-1.7,0.8-3.4,1.7-5.2,2.1c-0.1,0-0.2,0.1-0.4,0.2c-1,0.1-2.1,0.1-3.1,0.1c-1.3,0.1-2.6,0.4-3.9,0.5
			c-2.4,0.3-4.8,0.1-7.2,0.6c-1.8,0.3-4.3,0.7-6,1.9c0.2-1.4-0.4-2.9-0.9-4.2c-0.7-1.7-1.8-3.4-3.6-3.7c-0.6-0.9-2.4,0.8-1.9,1.7
			c0.8,1.5,1,3.6,0.7,5.2c-0.1,1.1-0.8,1.9-1.4,2.7c-0.5,0.7-0.8,1.4-1.4,2c-0.2-0.1-0.4-0.1-0.6-0.2c0.2-3.4-0.4-6.9-1.4-10.2
			c-0.2-0.7-1.1-0.1-1.5,0.6c-0.4,0-0.9,0.7-0.9,0.9c-0.2,2-0.3,3.9-0.8,5.8c-0.3,1-0.8,1.9-1.3,2.9c-2,0.5-4.1,1.4-5.7,2.8
			c0,0,0-0.1-0.1-0.1c-0.7-0.6-1.4-1.1-2.2-1.5c-0.5-1.5-2.3-2.6-3.1-3.9c-1-1.6-1-3.4-1.5-5.1c0.1-0.4,0-0.7-0.3-1
			c0,0-0.1-0.1-0.1-0.1c0,0,0,0,0,0c-0.3-0.6-1.1,0.3-1.2,0.7c-0.1,0.3-0.1,0.6-0.1,0.9c-0.3,1.5-0.4,2.9-0.4,4.4
			c0.1,1.7,0.2,3.7,0.9,5.3c-0.1,0.1-0.2,0.1-0.2,0.2c-0.5-1.7-2.7-2.9-4.2-3.7c-1.5-0.8-3.5-1.8-5.3-1.7c-0.5-0.9-2.2,0.7-2.3,1.5
			c-0.6,4.7,4.7,9.5,8.9,10.4c0.1,0,0.2,0,0.3,0c0.3,2.7-0.3,5-1.4,7.6c-1,2.4-2,4.6-2.7,7.1c-0.6,2.3-0.8,5,0.9,6.9
			c0.6,0.7,1.7,1.2,2.8,1.4c-0.3,1.2-0.3,2.4,0.2,3.6c0.7,1.7,2.8,2.3,4.4,2.4c3.3,0.3,6.3-2.1,9-3.6c2.7-1.5,5.4-3,7.9-4.8
			c1.3-0.9,3.3-2.6,4.1-4.3c0.5,2,2.2,3.8,3.6,5.2c2.3,2.3,4.8,4.3,7.4,6.3c2.5,1.9,5.2,3.8,7.8,5.5c2.2,1.4,4.9,2.3,7.5,1.8
			c-0.3,1-1.1,2.1-1.6,2.9c-0.9,1.3-1.8,2.6-2.5,4c-1.5,3.1-3.1,6.4-1.1,9.7c1.8,3.1,5.2,5,7.9,7.3c1.2,1,2.2,2.5,3.5,3.3
			c1.1,0.8,2.6,0.5,3.8,0.1c2.1-0.6,5.3-1.8,4.9-4.6c-0.2-2.1-1.5-5-3-6.5c-2.2-2.1-4.3,3-6,3.3c-2.4,0.4-3.9-2.5-4.8-4.7
			c0.2-3.1,1.2-5.6,3.1-8.2c1.9-2.6,4.2-4.8,6-7.4c0.3-0.4,0.5-0.8,0.8-1.1c0.2,4.5,1.3,8.9,2.5,13.3c0.6,2.3,1.1,4.5,1.7,6.8
			c0.4,1.4,1.5,1.7,2.8,1.7c3.5,0.1,8-1.5,9.5-4.8c1.5-3.1,0.4-7.8-2.4-9.8c-0.7-0.5-1.6,0.1-2.2,0.9c-0.5,0.3-0.9,0.7-1.2,1.2
			c-0.1,0.2-0.2,0.3-0.3,0.4c-0.2-0.9-0.5-1.9-0.7-2.7c-0.6-2.4-1.2-4.7-2-7c-0.6-1.7-2.3-6.9-4.7-6.5c0.1-0.5,0.1-1.1,0-1.6
			c0-0.3-0.1-0.7-0.2-1c3.9,0.4,8-1.1,11.6-2.2c2.3-0.8,4.6-1.5,6.8-2.5c2-0.9,3.9-2.3,5.6-3.7c3.6-3,7.5-5.9,10.7-9.3
			c1.2-1.3,2.4-2.7,3.4-4.2c0.7-1,1.7-2.5,1.7-3.8c1.5,0.2,2.9,0.8,4.5,1c0.5,5,0.7,10.1,1.1,15.1c0.1,1.5,0.4,3,1.1,4.4
			c0.8,1.5,2.3,2.4,3.8,3.1c0.1,0.2,0.2,0.3,0.5,0.2c0,0,0,0,0,0c0.2,0,0.4,0,0.6-0.1c2.8-0.6,5-3.4,6.1-5.9
			c0.1-0.3,0.2-0.6,0.1-0.9c0-0.2,0-0.4-0.3-0.6c-0.9-0.7-2-0.9-2.9-1.5c-1.2-0.7-1.9-1.8-2.2-3.2c-0.6-3.1-0.2-6.7,0.3-9.8
			c0.4-2.6,0.9-6.1-0.9-8.3c-1.2-1.5-3.4-1.4-5.1-1.1c-0.3-0.6-0.5-1.3-0.5-2.1c0-0.2,0-0.4,0.1-0.6c0,0,0.1-0.1,0.2-0.1
			c0.4-0.2,0.8-0.3,1.3-0.4c2.1-0.6,4.4-0.9,6.6-0.9c-0.1,1,0.2,2.1,0.4,3c0.6,2.1,1.5,4.1,2.5,6c1.9,3.6,5.4,7.2,9.8,7.4
			c0.9,0,2.2-1.6,1.7-2.4c0.5-0.7,0.9-1.5,1.3-2.2c0.3-0.6,1.4-2,1.6-3.1C321.1,360.4,321.1,360.1,321,359.9z M192.7,368.3
			c-0.1,1.2-1.4,2.5-2.7,2.1c-0.6-0.2-0.9-0.5-1-1c-0.4-0.5-0.6-1.1-0.4-1.8c0-0.1,0.1-0.2,0.1-0.3c0.1-0.3,0.2-0.7,0.4-0.9
			c0.4-0.6,1.1-0.8,1.7-0.8c0.3,0,0.6,0,0.9,0.2c0.2,0.1,0.3,0.2,0.4,0.4C192.9,366.7,193,367.6,192.7,368.3z M205.7,365.9
			c-0.2,1.3-1.1,2.3-2.2,3c-0.7,0.5-1.7,0.8-2.5,0.8c-0.9,0.3-1.7,0.3-2.4-0.5c-0.2-0.2-0.3-0.5-0.5-0.8c-0.1-0.2-0.2-0.3-0.3-0.5
			c-0.2-0.4-0.2-0.8-0.2-1.3c0.3-2.7,3.2-5.4,5.9-4C204.8,363.2,205.9,364.5,205.7,365.9z"/>
	</g>
	<path class="st2" d="M465.3,179l-434.6-0.5c0.2,27.9,53.5,56.4,127.7,69.9l2.8,3.8c11.8,17,160.2,15.2,173.5-1.9l1.4-1.8
		C408.9,235.4,465.6,207.5,465.3,179z"/>
	<g>
		<path class="st0" d="M391.3,155c-3.2,0-7.7-0.6-9.9-2.4c-1.8-1.4-2.3-3.4-1.5-5.4c2.2-5,6.4-8,11.2-8h0.1c4.8,0.1,8.9,3,11,7.8
			c0.9,2.2,0.3,4.4-1.6,5.9c-2.2,1.7-6,2.1-8.9,2.1H391.3z"/>
		<path class="st0" d="M391.2,139.7c4.6,0.1,8.6,2.9,10.5,7.5c0.8,2,0.3,4-1.5,5.3c-2.3,1.8-6.4,2-8.6,2h-0.4
			c-3.1,0-7.5-0.6-9.6-2.3c-1.6-1.3-2.1-3-1.4-4.8c2.1-4.8,6.2-7.7,10.7-7.7H391.2 M391.2,138.7h-0.1c-5,0-9.4,3.2-11.7,8.3
			c-0.9,2.2-0.3,4.4,1.6,6c2.3,1.9,7,2.5,10.2,2.5h0.4c4.2,0,7.3-0.7,9.2-2.2c2.1-1.6,2.8-4.1,1.8-6.5
			C400.5,141.8,396.2,138.8,391.2,138.7C391.2,138.7,391.2,138.7,391.2,138.7L391.2,138.7z"/>
	</g>
	<path class="st3" d="M80.6,225.4c0.5-0.2,0.9-0.7,1.3-1.4c0.2-0.4,0.3-0.7,0.3-1c0,0,0-0.1,0-0.1c0-1.3-0.7-3.6-5.5-5.3
		c-1.6-0.5-2.9-0.8-4.2-0.8c-2,0-3,0.8-3.5,1.5c-0.1,0.1-0.2,0.2-0.2,0.3c0,0,0,0,0,0c-0.2,0.4-0.4,0.9-0.4,1.4c0,0.5,0.1,1,0.3,1.4
		c0,0,0,0.1,0.1,0.2c0.1,0.2,0.1,0.3,0.1,0.5c0,0.2,0.1,0.3,0.1,0.5c0.7,2.4,2.3,4.1,4.5,4.8c0.6,0.2,1.4,0.3,2,0.3
		c1.1,0,2.1-0.2,3.1-0.7c0.7-0.3,1.5-0.8,2-1.4L80.6,225.4z"/>
	<path class="st3" d="M433.6,217.1c0-0.6-0.2-1.2-0.5-1.7c-0.1-0.2-0.3-0.4-0.4-0.5c-0.4-0.4-0.9-0.7-1.6-0.8
		c-0.3-0.1-0.7-0.1-1.1-0.1c-3.3,0-8.8,2.8-10,5.2c-0.5,0.9-0.5,1.9-0.1,2.7c0.1,0.2,0.2,0.3,0.3,0.5c0.1,0.2,0.2,0.3,0.3,0.5
		c0.9,0.8,2,1.6,3.1,1.9c0.2,0.1,0.3,0.1,0.5,0.1c0.7,0.2,1.4,0.3,2,0.3h0.1c1,0,2-0.2,2.9-0.6c2-0.9,3.4-2.6,4.1-4.8
		c0-0.1,0.1-0.2,0.1-0.3C433.5,218.6,433.6,217.9,433.6,217.1z"/>
	<path class="st3" d="M153.5,243.1c0.2-0.3,0.3-0.6,0.4-0.9c0.4-1.3,0.1-2.6-0.9-3.8c-2.1-2.2-7.5-3.4-11.8-3.4
		c-1.5,0-3.5,0.2-5,0.9c-0.9,0.5-1.6,1.3-1.8,2.2c0,0.2-0.1,0.4-0.1,0.6c0,0.3,0,0.6,0.1,0.9c0.3,1.4,0.8,2.6,1.6,3.7
		c0.1,0.1,0.1,0.2,0.2,0.3c1.6,2.4,4,4.1,6.8,4.6c0.5,0.1,0.9,0.1,1.5,0.1h0.1c2.3,0,4.5-0.8,6.4-2.3
		C152,245.2,152.8,244.2,153.5,243.1z"/>
	<path class="st3" d="M367.1,239.8c0.3-0.7,0.5-1.5,0.7-2.2c0.1-0.6,0.1-1.1,0-1.6c-0.1-0.3-0.1-0.5-0.2-0.8c-0.4-0.6-1-1.3-2-1.7
		c-0.9-0.5-2.3-0.7-4-0.7c-4.3,0-10.6,1.9-12.7,4.3c-0.8,1-1.1,2.3-0.7,3.3l0,0c0.1,0.3,0.2,0.6,0.4,0.8c0.7,1,1.7,2,2.6,2.7
		c1.9,1.5,4.1,2.4,6.4,2.4h0.1c0.6,0,1.4-0.1,2-0.2c3.2-0.7,5.7-2.8,7.2-5.8C366.9,240.2,367,240,367.1,239.8z"/>
	<path class="st3" d="M267.5,245.3c-2.4-1.8-6.8-2-9.2-2c-4.5,0-10.4,0.9-12.9,3c-1.6,1.3-2,3-1.1,4.6c0.1,0.1,0.1,0.3,0.2,0.4
		c0.1,0.3,0.3,0.5,0.4,0.8c0.4,0.7,0.9,1.4,1.3,2.1c0.4,0.5,0.7,0.9,1.1,1.3c2.5,2.6,5.6,4.1,9.1,4.1h0.2c0.1,0,0.3,0,0.4,0
		c3.9-0.1,7.3-2.1,9.8-5.2c0.3-0.5,0.7-1,1-1.5c0.5-0.7,0.9-1.5,1.2-2.4c0,0,0,0,0,0c0.1-0.2,0.1-0.4,0.2-0.5c0,0,0,0,0,0l0,0
		C269.7,248.2,269.1,246.5,267.5,245.3z"/>
	<path class="st7" d="M471.6,174.7c0.1,31.1-99.1,56.6-221.5,56.9c-122.4,0.3-221.7-24.6-221.8-55.7c0-14.9,22.7-28.5,59.8-38.7
		l3-0.5l0.9-0.6c40.2-10.5,96-17,157.7-17.2c49.5-0.1,95.3,3.9,132.2,10.8l2.6,0.5C437.5,140.4,471.6,156.5,471.6,174.7z"/>
	<g>
		<path class="st0" d="M93.1,162.4c-3.2,0-7.7-0.6-9.9-2.4c-1.8-1.4-2.3-3.4-1.5-5.4c2.2-5,6.4-8,11.2-8H93c4.8,0.1,8.9,3,11,7.8
			c0.9,2.2,0.3,4.4-1.6,5.9c-2.2,1.7-6,2.1-8.9,2.1H93.1z"/>
		<path class="st0" d="M93,147.1c4.6,0.1,8.6,2.9,10.5,7.5c0.8,2,0.3,4-1.5,5.3c-2.3,1.8-6.4,2-8.6,2h-0.4c-3.1,0-7.5-0.6-9.6-2.3
			c-1.6-1.3-2.1-3-1.4-4.8c2.1-4.8,6.2-7.7,10.7-7.7H93 M93,146.1h-0.1c-5,0-9.4,3.2-11.7,8.3c-0.9,2.2-0.3,4.4,1.6,6
			c2.3,1.9,7,2.5,10.2,2.5h0.4c4.2,0,7.3-0.7,9.2-2.2c2.1-1.6,2.8-4.1,1.8-6.5C102.3,149.2,98,146.2,93,146.1
			C93,146.1,93,146.1,93,146.1L93,146.1z"/>
	</g>
	<g>
		<path class="st0" d="M349.1,204.8c-1.5,0-6.7-0.1-9.6-2c-2.2-1.3-3.2-3.6-2.5-6c2.4-7.5,7.8-12.4,14.6-13.2
			c0.6-0.1,1.2-0.1,1.8-0.1c6,0,11.6,3.5,14.9,9.3c1.5,2.5,1,5.1-1.1,7.3c-3.4,3.2-11.4,4.6-17.5,4.6H349.1z"/>
		<path class="st0" d="M353.4,184c5.8,0,11.2,3.4,14.5,9.1c1.4,2.3,0.9,4.7-1,6.7c-3.2,3-11,4.5-17.1,4.5h-0.6
			c-2.4,0-6.8-0.3-9.3-1.9c-2.1-1.3-2.9-3.3-2.3-5.4c2.3-7.3,7.6-12.1,14.2-12.8C352.3,184,352.9,184,353.4,184 M353.4,183
			c-0.6,0-1.2,0-1.8,0.1c-7,0.8-12.6,5.8-15,13.5c-0.8,2.6,0.3,5.1,2.7,6.6c2.9,1.8,7.8,2,9.8,2h0.6c6.3,0,14.3-1.5,17.8-4.8
			c2.4-2.4,2.8-5.2,1.2-7.9C365.4,186.6,359.6,183,353.4,183L353.4,183z"/>
	</g>
	<g>
		<path class="st0" d="M157,210.3c-6.7-0.1-16.6-2.8-19.9-6.4c-1.8-1.9-2.1-4.4-0.7-6.5c3.6-5.6,9.1-8.8,14.9-8.8
			c0.9,0,1.8,0.1,2.7,0.2c6.6,1.2,11.8,6.3,13.5,13.4c0.7,2.8-0.4,5.2-3.1,6.6c-1.6,0.9-3.9,1.4-7,1.4H157z"/>
		<path class="st0" d="M151.3,189.1c0.8,0,1.8,0.1,2.6,0.2c6.4,1.1,11.4,6.2,13,13c0.6,2.6-0.4,4.8-2.8,6.1
			c-1.6,0.9-3.9,1.4-6.8,1.4H157c-6.7-0.1-16.3-2.7-19.5-6.3c-1.7-1.8-1.9-4-0.6-5.8C140.4,192.3,145.7,189.1,151.3,189.1
			 M151.3,188.1c-6,0-11.6,3.3-15.3,9c-1.5,2.3-1.2,5,0.7,7.1c3.5,3.8,13.3,6.5,20.2,6.6l0.4,0c3.2,0,5.6-0.5,7.3-1.5
			c2.8-1.5,4-4.1,3.3-7.2c-1.8-7.3-7.1-12.6-13.8-13.8c0,0,0,0-0.1,0C153.2,188.2,152.2,188.1,151.3,188.1L151.3,188.1z"/>
	</g>
	<path class="st7" d="M145.6,147.9C190.1,48.2,303,54,344.3,145.7C372.2,207.7,123.6,197.2,145.6,147.9z"/>
	<g>
		<path class="st0" d="M204.4,105.2c-0.4,0-1-0.1-1.4-0.8c-0.2-0.2-0.3-0.6-0.2-1c0.1-0.4,0.3-0.7,0.6-1
			c11.9-9.9,27.5-15.3,43.9-15.3c13.3,0,26,3.4,36.9,9.9c0.7,0.5,0.9,1.3,0.6,2c-0.1,0.5-0.7,0.9-1.4,0.9H283l-0.1,0
			c-11.8-3.5-23.9-5.3-35.1-5.3c-16.2,0-30.5,3.5-42.6,10.5C204.8,105.2,204.6,105.2,204.4,105.2z"/>
		<path class="st0" d="M247.3,87.6c13.2,0,25.8,3.3,36.6,9.8c0.4,0.3,0.6,0.8,0.4,1.4c-0.1,0.4-0.5,0.6-0.9,0.6c-0.1,0-0.2,0-0.3,0
			c-11.7-3.4-23.9-5.3-35.3-5.3c-16.2,0-30.7,3.5-42.9,10.5c-0.2,0.1-0.3,0.1-0.5,0.1c-0.4,0-0.7-0.1-0.9-0.5
			c-0.3-0.4-0.2-1,0.2-1.4C215.5,93,230.9,87.6,247.3,87.6 M247.3,86.6c-16.5,0-32.3,5.5-44.2,15.5c-0.4,0.3-0.7,0.8-0.7,1.3
			c-0.1,0.5,0,1,0.3,1.4c0.4,0.7,1,1,1.8,1c0.3,0,0.5,0,1-0.2l0,0l0,0c12.1-6.9,26.3-10.4,42.4-10.4c11.2,0,23.3,1.8,35,5.3l0.1,0
			h0.1h0.3c0.9,0,1.7-0.5,1.9-1.3c0.3-0.9,0-1.9-0.8-2.5l0,0l0,0C273.5,90,260.7,86.6,247.3,86.6L247.3,86.6z"/>
	</g>
	<g>
		<path class="st0" d="M285.8,178.7c-0.7,0-1.4-0.5-1.5-1.1c-0.2-0.4-0.1-0.9,0.2-1.2c0.2-0.3,0.5-0.5,0.8-0.5
			c11.5-4.7,23.2-9.9,30.5-16.1c7.7-6.5,10.3-13.7,8.2-22.7c-0.2-0.8,0.2-1.5,0.9-1.8c0.2-0.2,0.5-0.2,0.7-0.2
			c0.5,0,0.9,0.3,1.2,0.7c3.9,6.3,4.8,12.6,2.4,18.2c-4.2,10.4-18.7,18.6-43,24.6l-0.1,0H285.8z"/>
		<path class="st0" d="M325.5,135.6c0.3,0,0.6,0.2,0.8,0.5c3.9,6.2,4.7,12.2,2.4,17.7c-4.2,10.2-18.5,18.4-42.7,24.3
			c0,0-0.1,0-0.2,0c-0.5,0-0.9-0.3-1-0.7c-0.2-0.5,0.1-1.1,0.6-1.1c13.4-5.4,23.8-10.3,30.7-16.2c7.9-6.7,10.5-14.1,8.3-23.2
			c-0.1-0.5,0.1-1,0.6-1.3C325.2,135.6,325.4,135.6,325.5,135.6 M325.5,134.6c-0.2,0-0.6,0-0.9,0.2c-0.8,0.4-1.3,1.3-1.1,2.3
			c2.1,8.8-0.4,15.8-8,22.2c-7.2,6.1-18.8,11.3-30.3,16c-0.5,0.1-0.9,0.3-1.1,0.7c-0.3,0.5-0.4,1.1-0.2,1.7c0.2,0.8,1.1,1.4,2,1.4
			h0.2h0.1l0.1,0c24.5-6,39.1-14.4,43.4-24.9c2.4-5.8,1.5-12.2-2.5-18.7C326.7,134.9,326.1,134.6,325.5,134.6L325.5,134.6z"/>
	</g>
	<g>
		<path class="st0" d="M397.9,156.7c-1.4,0-2.9-0.2-4.6-0.5l-0.4-0.1c-3.1-0.6-7.4-2.1-9.3-4.2c-1.5-1.7-1.6-3.8-0.5-5.6
			c2.6-3.8,6.4-6,10.4-6c0.7,0,1.4,0.1,2.1,0.2l0.1,0c4.7,1,8.2,4.7,9.3,9.8c0.5,2.4-0.5,4.4-2.7,5.5
			C401.3,156.4,399.8,156.7,397.9,156.7C397.9,156.7,397.9,156.7,397.9,156.7z"/>
		<path class="st0" d="M393.6,140.8c0.7,0,1.3,0.1,2,0.2l0.1,0c4.5,1,7.9,4.5,8.9,9.4c0.4,2.1-0.4,4-2.4,4.9
			c-1.2,0.6-2.7,0.8-4.2,0.8c-1.7,0-3.4-0.3-4.5-0.5l-0.4-0.1c-3.1-0.6-7.3-2-9-4.1c-1.3-1.5-1.5-3.4-0.4-5
			C386.1,142.9,389.8,140.8,393.6,140.8 M393.6,139.8c-4.2,0-8.1,2.3-10.8,6.2c-1.3,2-1.1,4.3,0.5,6.2c1.9,2.3,6.4,3.8,9.6,4.4
			l0.4,0.1c1.7,0.3,3.3,0.5,4.7,0.5c1.9,0,3.5-0.3,4.7-0.9c2.4-1.2,3.5-3.5,3-6c-1.2-5.3-4.8-9.1-9.7-10.1l-0.1,0
			C395,139.9,394.3,139.8,393.6,139.8L393.6,139.8z"/>
	</g>
	<g>
		<path class="st0" d="M253.9,442.6c-0.8,0-1.6,0-2.4,0c-0.8-0.1-1.4-0.7-1.5-1.4c-0.1-0.5,0.2-1.2,0.8-1.5l0.3-0.2l0.1,0
			c12-2.6,23.5-6.9,33.3-12.3c14.2-7.8,25-17.8,32.3-29.7c0.2-0.3,0.4-0.4,0.6-0.5c0.3-0.2,0.5-0.2,0.8-0.2c0.3,0,0.5,0.1,0.8,0.3
			c0.6,0.3,1,1.2,0.6,1.9c-5.7,14.4-16.7,26.7-31.1,34.6C277.7,439.4,265.7,442.6,253.9,442.6C253.9,442.6,253.9,442.6,253.9,442.6z
			"/>
	</g>
</g>
</svg>
