<?xml version="1.0" encoding="iso-8859-1"?>
<!-- Generator: Adobe Illustrator 19.0.0, SVG Export Plug-In . SVG Version: 6.00 Build 0)  -->
<svg version="1.1" id="Layer_1" xmlns="http://www.w3.org/2000/svg" xmlns:xlink="http://www.w3.org/1999/xlink" x="0px" y="0px"
	 viewBox="0 0 496.158 496.158" style="enable-background:new 0 0 496.158 496.158;" xml:space="preserve">
<path style="fill:#334D5C;" d="M248.082,0.003C111.07,0.003,0,111.063,0,248.085c0,137.001,111.07,248.07,248.082,248.07
	c137.006,0,248.076-111.069,248.076-248.07C496.158,111.062,385.088,0.003,248.082,0.003z"/>
<path style="fill:#CCCCCC;" d="M383.404,163.17c-1.16-4.343-3.164-8.037-6.093-10.939c-22.708-22.501-91.524,10.13-153.711,72.89
	c-62.184,62.757-94.188,131.872-71.482,154.373c2.31,2.289,5.12,3.978,8.326,5.152l-0.22,0.235c0,0,94.818,33.431,163.131-17.172
	C339.611,355.669,432.754,261.017,383.404,163.17z"/>
<path style="fill:#C1C1C1;" d="M334.296,365.208c-3.645,3.669-6.59,6.245-8.354,7.55c-5.52,4.09-11.266,7.456-17.129,10.22
	c-1.161,10.518,5.896,20.358,16.467,22.463c11.17,2.226,22.029-5.025,24.255-16.196C351.692,378.4,344.918,367.849,334.296,365.208z
	"/>
<path style="fill:#F9F9F9;" d="M369.504,160.11c-21.132-20.942-85.18,9.428-143.055,67.835
	c-57.87,58.404-87.655,122.727-66.523,143.669c21.137,20.941,85.177-9.429,143.054-67.836
	C360.858,245.374,390.638,181.051,369.504,160.11z"/>
<g>
	<path style="fill:#C1C1C1;" d="M277.067,251.241l-69.103-53.176l-6.159,5.973l50.582,73.351c0,0,10.121-0.017,18.706-8.603
		C279.679,260.2,277.067,251.241,277.067,251.241z"/>
	<path style="fill:#C1C1C1;" d="M194.153,170.626c-10.72,0-19.41,8.693-19.41,19.413s8.69,19.412,19.41,19.412
		c10.722,0,19.413-8.692,19.413-19.412C213.566,179.319,204.875,170.626,194.153,170.626z M194.153,202.731
		c-7.011,0-12.693-5.683-12.693-12.692s5.682-12.693,12.693-12.693c7.012,0,12.693,5.684,12.693,12.693
		S201.164,202.731,194.153,202.731z"/>
</g>
<path style="fill:#AFB1B2;" d="M353.1,402.79c-0.211-0.694-0.79-1.213-1.503-1.349c-0.711-0.134-1.442,0.136-1.891,0.705
	c-0.081,0.1-8.11,10.069-20.116,10.07h-0.002c-6.682,0-13.42-3.087-20.028-9.173c-0.498-0.458-1.193-0.626-1.844-0.445
	c-0.65,0.181-1.16,0.684-1.349,1.332l-26.408,90.192c32.973-4.229,63.921-14.931,91.528-30.792L353.1,402.79z"/>
<g>
	<path style="fill:#F3F4F5;" d="M221.318,125.204c-0.597-0.599-1.313-1.096-2.134-1.459c-22.506-9.917-52.846-1.36-75.5,21.293
		c-20.036,20.036-29.328,46.985-23.669,68.655c0.978,3.75,4.813,5.995,8.563,5.017c3.753-0.978,6-4.813,5.021-8.563
		c-4.423-16.94,3.433-38.602,20.013-55.182c18.299-18.299,42.935-25.854,59.913-18.373c3.547,1.564,7.69-0.045,9.252-3.593
		C223.98,130.27,223.304,127.191,221.318,125.204z"/>
	<path style="fill:#F3F4F5;" d="M218.024,80.515c-0.599-0.6-1.315-1.097-2.133-1.458c-31.612-13.93-76.114-1.233-108.224,30.877
		c-28.885,28.885-42.319,67.58-34.223,98.579c0.977,3.751,4.812,5.998,8.562,5.018c3.751-0.978,5.999-4.813,5.019-8.563
		c-6.86-26.271,5.14-59.677,30.568-85.106c28.108-28.109,66.204-39.606,92.637-27.958c3.547,1.564,7.69-0.044,9.252-3.593
		C220.685,85.582,220.011,82.503,218.024,80.515z"/>
</g>
<g>
</g>
<g>
</g>
<g>
</g>
<g>
</g>
<g>
</g>
<g>
</g>
<g>
</g>
<g>
</g>
<g>
</g>
<g>
</g>
<g>
</g>
<g>
</g>
<g>
</g>
<g>
</g>
<g>
</g>
</svg>
