<?xml version="1.0" ?><svg data-name="Livello 1" id="Livello_1" viewBox="0 0 128 128" xmlns="http://www.w3.org/2000/svg"><title/><path d="M121,10.3H107.2V3a3,3,0,0,0-6,0v7.3H80.4V3a3,3,0,0,0-6,0v7.3H53.6V3a3,3,0,0,0-6,0v7.3H26.8V3a3,3,0,0,0-6,0v7.3H7a7,7,0,0,0-7,7V121a7,7,0,0,0,7,7H95a3,3,0,0,0,.59-.06l.26-.08a1.76,1.76,0,0,0,.59-.25l.23-.12a3,3,0,0,0,.46-.38l30-30a3,3,0,0,0,.38-.46c0-.07.07-.14.11-.21a1.78,1.78,0,0,0,.25-.6c0-.09.06-.17.08-.27A3,3,0,0,0,128,95h0V17.3A7,7,0,0,0,121,10.3ZM98,98h19.76L98,117.76ZM7,16.3H20.8v7.3a3,3,0,0,0,6,0V16.3H47.6v7.3a3,3,0,1,0,6,0V16.3H74.4v7.3a3,3,0,1,0,6,0V16.3h20.8v7.3a3,3,0,1,0,6,0V16.3H121a1,1,0,0,1,1,1V31.6H6V17.3A1,1,0,0,1,7,16.3ZM6,121V37.6H122V92H95a3,3,0,0,0-3,3v27H7A1,1,0,0,1,6,121Z"/></svg>